<?xml version="1.0" encoding="utf-8"?>
<!-- Generator: Adobe Illustrator 26.4.1, SVG Export Plug-In . SVG Version: 6.00 Build 0)  -->
<svg version="1.1" id="Layer_1" xmlns="http://www.w3.org/2000/svg" xmlns:xlink="http://www.w3.org/1999/xlink" x="0px" y="0px"
	 viewBox="0 0 1452.18 1452.18" style="enable-background:new 0 0 1452.18 1452.18;" xml:space="preserve">
<style type="text/css">
	.st0{fill:#FFFFFF;}
	.st1{fill:#FFFFFF;stroke:#000000;stroke-width:16;stroke-linejoin:round;stroke-miterlimit:10;}
	.st2{fill:none;stroke:#000000;stroke-width:10;stroke-miterlimit:10;}
	.st3{fill:#040202;}
	.st4{fill:#6AF600;}
	.st5{fill:#FB3C00;}
	.st6{fill:#04581C;}
	.st7{fill:#549E00;}
	.st8{fill:#FF6A00;}
	.st9{fill:#FFA818;}
	.st10{fill:#808080;}
	.st11{fill:#616161;}
	.st12{fill:#4D4D4D;}
	.st13{fill:#D4DF80;}
	.st14{fill:#859051;}
	.st15{fill:#282627;}
	.st16{fill:#F3E7A4;}
	.st17{fill:#1D1EB1;}
	.st18{fill:#9D0000;}
	.st19{fill:#D40000;}
</style>
<g>
	<path class="st4" d="M513.73,569.94c-1.39,0-2.78-0.36-4.01-1.08l-155.48-90.11c-1.84-1.07-3.18-2.83-3.73-4.89
		c-0.54-2.06-0.24-4.25,0.84-6.09l16.95-28.82c1.43-2.44,4.05-3.94,6.88-3.94c16.31-0.03,48.17-3.39,78.34-25.57
		c36.64-26.93,47.98-64.89,51.16-79.96c0.01-0.04,0.02-0.08,0.03-0.12c18.73-82.77,75.97-143.84,142.45-151.96
		c5.07-0.62,10.24-0.93,15.37-0.93c7.49,0,15.12,0.67,22.7,1.98c13.03,2.26,26.35,3.41,39.59,3.41s26.56-1.15,39.59-3.41
		c7.58-1.31,15.21-1.98,22.7-1.98c5.13,0,10.31,0.31,15.37,0.93c66.48,8.12,123.72,69.19,142.45,151.96
		c0.01,0.04,0.02,0.08,0.03,0.12c3.17,15.07,14.51,53.03,51.16,79.96c30.17,22.18,62.04,25.54,78.34,25.57
		c2.83,0.01,5.45,1.5,6.88,3.94l16.95,28.82c1.08,1.84,1.38,4.03,0.84,6.09c-0.54,2.06-1.88,3.82-3.73,4.89l-155.48,90.11
		c-1.23,0.71-2.62,1.08-4.01,1.08c-1,0-2-0.19-2.95-0.56c-2.28-0.9-4.01-2.8-4.72-5.15c-6.83-22.88-29.19-79.96-89.16-115.83
		c-38.71-23.16-77.25-28.02-102.76-28.02c-2.97,0-5.98,0.07-8.95,0.2c-0.54,0.11-1.09,0.17-1.64,0.17c-0.16,0-0.32,0-0.48-0.01
		l-0.43-0.02l-0.43,0.02c-0.16,0.01-0.32,0.01-0.48,0.01c-0.55,0-1.11-0.06-1.64-0.17c-2.97-0.13-5.98-0.2-8.95-0.2
		c-25.51,0-64.05,4.86-102.76,28.02c-59.97,35.87-82.33,92.95-89.16,115.83c-0.7,2.35-2.44,4.24-4.72,5.15
		C515.73,569.75,514.73,569.94,513.73,569.94z"/>
	<path d="M787.11,184.47c4.69,0,9.5,0.27,14.41,0.87c62.84,7.68,117.49,65.66,135.62,145.79c2.3,10.92,12.75,54.27,54.25,84.76
		c34.54,25.38,70.5,27.1,83.07,27.12c5.65,9.61,11.3,19.21,16.95,28.82c-51.83,30.04-103.66,60.07-155.48,90.11
		c-4.77-15.97-26.04-80.52-92.72-120.41c-41.92-25.07-82.99-29.15-106.87-29.15c-4.05,0-7.61,0.12-10.59,0.27c0,0.03,0,0.07,0,0.1
		c-0.29-0.02-0.61-0.03-0.92-0.05c-0.3,0.02-0.62,0.03-0.92,0.05c0-0.03,0-0.07,0-0.1c-2.98-0.15-6.54-0.27-10.59-0.27
		c-23.88,0-64.95,4.08-106.87,29.15c-66.68,39.88-87.95,104.43-92.72,120.41c-51.83-30.04-103.66-60.07-155.48-90.11
		c5.65-9.61,11.3-19.21,16.95-28.82c12.57-0.02,48.53-1.74,83.07-27.12c41.49-30.49,51.94-73.84,54.25-84.76
		c18.13-80.13,72.78-138.11,135.62-145.79c4.91-0.6,9.72-0.87,14.41-0.87c7.44,0,14.57,0.69,21.33,1.86
		c13.54,2.35,27.25,3.52,40.96,3.52c13.71,0,27.42-1.17,40.96-3.52C772.54,185.16,779.68,184.47,787.11,184.47 M787.11,168.47
		c-7.94,0-16.04,0.71-24.07,2.1c-12.58,2.18-25.44,3.29-38.22,3.29s-25.65-1.11-38.22-3.29c-8.03-1.39-16.12-2.1-24.07-2.1
		c-5.46,0-10.96,0.33-16.35,0.99c-34.71,4.24-67.33,21.77-94.33,50.69c-26.46,28.33-45.46,65.49-54.95,107.45
		c-0.02,0.08-0.03,0.15-0.05,0.23c-2.99,14.17-13.65,49.87-48.07,75.17c-28.34,20.83-58.29,23.99-73.62,24.02
		c-5.66,0.01-10.89,3.01-13.76,7.89l-8.48,14.41l-8.48,14.41c-2.16,3.67-2.77,8.06-1.68,12.18c1.08,4.12,3.77,7.64,7.45,9.78
		l77.74,45.05l77.74,45.05c2.47,1.43,5.24,2.16,8.02,2.16c2,0,4-0.37,5.9-1.13c4.55-1.81,8.03-5.6,9.43-10.29
		c6.56-21.98,28.04-76.83,85.6-111.25c37.15-22.22,74.15-26.88,98.65-26.88c2.68,0,5.38,0.06,8.06,0.17c0.83,0.13,1.68,0.2,2.53,0.2
		c0.31,0,0.61-0.01,0.92-0.03c0.31,0.02,0.61,0.03,0.92,0.03c0.85,0,1.7-0.07,2.53-0.2c2.68-0.11,5.38-0.17,8.06-0.17
		c24.5,0,61.51,4.66,98.65,26.88c57.56,34.42,79.03,89.27,85.6,111.25c1.4,4.69,4.88,8.49,9.43,10.29c1.9,0.75,3.9,1.13,5.9,1.13
		c2.78,0,5.55-0.73,8.02-2.16l56.87-32.96l98.61-57.15c3.69-2.14,6.37-5.66,7.45-9.78c1.08-4.12,0.48-8.5-1.68-12.18l-8.48-14.41
		l-8.48-14.41c-2.87-4.88-8.1-7.88-13.76-7.89c-15.33-0.03-45.28-3.19-73.62-24.02c-34.42-25.29-45.08-60.99-48.07-75.17
		c-0.02-0.08-0.03-0.15-0.05-0.23c-9.49-41.96-28.5-79.12-54.95-107.45c-27-28.92-59.62-46.45-94.33-50.69
		C798.07,168.8,792.57,168.47,787.11,168.47L787.11,168.47z"/>
</g>
<g>
	<path class="st5" d="M737.79,209.55c14,21.08,28,42.16,42,63.24c14.63,1.22,36.38,5.28,58.55,18.64
		c32.16,19.38,47.09,47.4,51.4,55.73c9.19,17.78,5.94,21.12,17.69,44.84c8.09,16.35,15.22,30.73,28.75,44.12
		c29.13,28.82,66.53,31.78,69.77,31.99c37.1,2.4,63.51-15.51,70.95-20.95c-0.81-1.38-1.63-2.77-2.44-4.15
		c-9.88,4.05-34.75,12.66-64.49,5.53c-34.86-8.35-54.35-33.04-60.53-41.11c-25.81-33.7-12.12-54-35.05-100.24
		c-4.77-9.62-21.17-41.83-53.7-65.99C814.14,206.65,760.31,207.68,737.79,209.55z"/>
	<path class="st5" d="M703.85,203.84c-7.33,21.4-14.66,42.8-21.99,64.2c-12.15-1-45.36-2.15-78.56,17.68
		c0,0-29.42,17.45-47.75,49.05c-1.63,2.81-2.83,5.1-3.65,6.68c-9.19,17.78-5.94,21.12-17.69,44.84
		c-8.09,16.35-15.22,30.73-28.75,44.12c-28.54,28.24-66.43,31.78-69.77,31.99c-30.67,1.97-53.64-10.06-62.76-15.53
		c0.76-1.28,1.51-2.57,2.27-3.85c10.82,2.72,31.89,6.42,56.48-0.18c35.43-9.51,55.24-34.2,60.53-41.11
		c25.81-33.7,12.12-54,35.05-100.24c4.77-9.62,21.17-41.83,53.7-65.99C627.5,200.93,681.33,201.97,703.85,203.84z"/>
	<path class="st6" d="M754.06,221.34c14.69-0.74,45.62-0.24,78.35,17.18c49.28,26.23,67.24,71.95,71.53,83.92
		c-14.55-14.94-42.13-38.74-83.21-50.28c-14.17-3.98-27.28-5.75-38.6-6.37C772.77,250.96,763.42,236.15,754.06,221.34z"/>
	<path class="st6" d="M686.53,216.26c-14.69-0.74-45.62-0.24-78.35,17.18c-49.28,26.23-67.24,71.95-71.53,83.92
		c15.46-14.81,43.04-37.08,83.21-50.28c20.36-6.69,38.88-9.38,53.76-10.32C677.93,243.26,682.23,229.76,686.53,216.26z"/>
</g>
<g>
	<path class="st7" d="M389.25,488.63c-3.75-2.32,46.95,24.56,92.67,10.19c22.13-6.95,38.09-21.96,49.28-36.2
		c0.37,13.17,0.74,26.34,1.11,39.51c-9.28,19.23-18.56,38.45-27.85,57.68C466.06,536.09,427.65,512.36,389.25,488.63z"/>
	<path class="st7" d="M1062.93,488.63c3.75-2.32-46.95,24.56-92.67,10.19c-22.13-6.95-38.09-21.96-49.28-36.2
		c-0.37,13.17-0.74,26.34-1.11,39.51c9.28,19.23,18.56,38.45,27.85,57.68C986.12,536.09,1024.53,512.36,1062.93,488.63z"/>
</g>
<g>
	<path d="M375.51,442.44c48.93,19.85,93.45,5.58,122.57-38.17c11.46-17.43,18.59-37.5,21.98-58.04
		c3.23-18.26,8.66-36.15,17.17-52.74c17.03-34.11,46.97-59.12,82.25-72.12c14.66-6.16,30.9-9.29,46.6-8.64
		c20.8,0.88,40.57,6.99,58.95,16.27c0.32,0.16,0.45,0.55,0.29,0.87c-0.15,0.3-0.49,0.43-0.8,0.32c-9.37-3.34-18.93-6.15-28.69-7.97
		c-24.71-4.89-49.64-3.04-72.46,7.98c-22.7,9.8-43.61,24.36-58.88,43.96c-13.86,17.44-23.07,38.3-28.59,59.83
		c-3.04,12-4.61,24.66-8.49,36.47c-7.6,23.92-20.96,46.31-40.12,62.76c-23.07,20.28-54.46,29.19-84.47,21.37
		c-9.77-2.38-19.15-6.2-27.93-11.04c-0.31-0.17-0.43-0.57-0.25-0.88C374.82,442.38,375.2,442.29,375.51,442.44L375.51,442.44z"/>
</g>
<g>
	<path class="st5" d="M931.7,536.35c-12.87-29.14-38.47-70.46-86.83-99.11c-41.63-24.67-83.02-29.85-110.41-29.85
		c-2.97,0-5.97,0.06-8.92,0.18l-1.69,0.07l-1.72-0.07c-2.91-0.12-5.88-0.18-8.81-0.18c-27.15,0-68.17,5.18-109.43,29.86
		c-47.78,28.58-73.14,69.76-85.93,98.89c0.82-27.31,7.14-60.67,26.93-93.33c52.33-86.34,156.79-94.35,177.21-95.08l1.56-0.06
		c0.03,0,0.29,0,0.29,0c0.15,0,0.29-0.01,0.43-0.01l1.19,0.06c20.61,0.73,126.11,8.72,178.95,95.1
		C924.54,475.56,930.9,509,931.7,536.35z"/>
	<path d="M723.68,352.66l0.16,0l0.15,0l1.4,0.05c20.16,0.71,123.35,8.51,174.86,92.72c12.08,19.74,20.14,41.71,23.97,65.34
		c-15.22-26.02-39.34-55.64-76.8-77.84c-42.61-25.25-84.95-30.55-112.96-30.55c-3.04,0-6.11,0.06-9.13,0.19l-1.49,0.06l-1.52-0.06
		c-2.98-0.12-6.02-0.19-9.01-0.19c-27.78,0-69.76,5.3-112,30.57c-36.91,22.08-60.75,51.49-75.84,77.41
		c3.83-23.48,11.79-45.33,23.69-64.96c50.99-84.14,153.15-91.97,173.11-92.68L723.68,352.66 M725.74,342.64
		c-0.38,0-1.03,0.01-1.9,0.02c-0.89-0.02-1.54-0.02-1.92-0.02c0,0.03,0,0.05,0,0.08c-22.41,0.8-127.89,9.36-181.3,97.49
		c-30.2,49.83-28.78,100.4-26.88,121.73c4.77-15.97,26.04-80.52,92.72-120.41c41.92-25.07,82.99-29.15,106.86-29.15
		c3.19,0,6.07,0.07,8.6,0.18c0,0.06,0,0.13,0,0.19c0.61-0.04,1.25-0.07,1.92-0.11c0.66,0.03,1.3,0.07,1.9,0.11c0-0.06,0-0.13,0-0.19
		c2.57-0.11,5.49-0.18,8.72-0.18c24.1,0,65.55,4.07,107.86,29.15c67.31,39.88,88.77,104.43,93.59,120.41
		c1.92-21.33,3.35-71.9-27.13-121.73c-53.94-88.17-160.5-96.7-183.04-97.49C725.74,342.69,725.74,342.67,725.74,342.64
		L725.74,342.64z"/>
</g>
<g>
	<path d="M1074.76,443.59c-54.35,38.37-117.58,13.7-149.07-40.77c-8.1-13.9-13.84-29.08-17.38-44.75
		c-0.95-4.78-3.39-16.98-4.61-21.49c-5.22-20.18-13.66-39.69-26.31-56.24c-14.03-18.67-33.2-33.01-54.15-43.22
		c-4.19-2.08-8.56-4.06-12.88-5.92c-10.64-4.29-22.58-6.33-34.25-6.91c-17.19-0.7-34.32,2.05-51.07,5.95
		c-0.35,0.08-0.69-0.14-0.77-0.49c-0.07-0.32,0.11-0.64,0.41-0.75c9.38-3.46,18.99-6.39,28.83-8.34c19.65-4.06,40.4-4.14,59.62,2.1
		c9.48,3.3,18.67,7.39,27.57,12.03c41.83,21.47,67.86,60.44,77.28,105.92c1.01,4.92,1.89,9.86,2.87,14.69
		c2.06,9.68,5.01,19.17,8.85,28.29c16.65,40.79,55.99,75.59,102.13,71.64c14.83-1.11,29.24-5.85,42.32-12.88
		c0.32-0.17,0.71-0.05,0.88,0.26C1075.18,443.02,1075.06,443.41,1074.76,443.59L1074.76,443.59z"/>
</g>
<g>
	<path d="M375.47,444.72c35.08,10.87,71.22,8.78,101.56-13.06c13.79-9.72,25.14-23.1,32.89-38.04c4.75-8.8,7.69-18.41,9.93-28.1
		c10.42-51.24,43.44-86.5,92.16-103.41c6.95-2.48,13.87-4.5,20.94-6.29c30.82-7.15,63.89-0.89,91.98,11.74
		c0.36,0.13,0.56,0.53,0.4,0.89c-0.13,0.3-0.47,0.45-0.77,0.35c-26.56-7.86-55.03-11.79-82.32-5.76
		c-55.27,14.33-96.66,45.78-109.41,103.45c-0.76,3.25-1.75,6.96-2.58,10.25c-0.8,2.4-2.01,5.98-2.82,8.37
		c-8.67,22.49-24.34,42.37-44.75,55.31c-31.7,21.18-73.86,21.72-107.74,5.48c-0.32-0.15-0.47-0.53-0.32-0.86
		C374.77,444.71,375.14,444.59,375.47,444.72L375.47,444.72z"/>
</g>
<g>
	<path d="M1074.72,445.9c-44.19,27.37-99.68,20.06-136.16-17.24c-14.2-14.59-24.79-33.04-30.01-52.76
		c-0.52-2.04-1.35-5.16-1.82-7.17c-0.46-1.8-1.02-4.52-1.58-6.26c-10.84-39.95-37.21-66.39-74.46-83.09
		c-7.97-3.58-16.33-7.12-24.76-9.66c-26.11-7.58-54.28-5.36-80.84-0.9c-0.37,0.1-0.78-0.14-0.83-0.53
		c-0.05-0.32,0.15-0.62,0.45-0.72c26.65-8.22,55.52-12.61,83.14-6.53c27.13,6.88,53.77,18.79,74.42,38.04
		c18.17,16.83,30.52,39.43,36.22,63.43c0.72,3.29,1.65,6.96,2.45,10.18c11.31,45.49,52.02,80.76,99.26,82.74
		c18.47,0.9,37.06-3.17,53.98-10.71c0.33-0.15,0.71,0,0.85,0.33C1075.18,445.37,1075.03,445.75,1074.72,445.9L1074.72,445.9z"/>
</g>
<g>
	<g>
		<g>
			<path class="st8" d="M161.78,1003.54c-0.88,0-1.77-0.04-2.65-0.11c-21.45-1.7-38.25-23.83-38.25-50.38
				c0-26.71,16.93-48.33,38.55-49.23c0.46-0.02,0.93-0.03,1.39-0.03c5.98,0,11.88,1.62,17.26,4.72L346.77,863
				c0.69-0.19,1.39-0.28,2.08-0.28c1.49,0,2.97,0.42,4.26,1.23c1.89,1.19,3.2,3.11,3.61,5.3l13.95,74.47
				c0.39,2.09-0.07,4.25-1.27,6.01c-1.21,1.75-3.06,2.95-5.16,3.34l-170.67,31.12C186.08,996.38,174.44,1003.54,161.78,1003.54z"/>
			<path d="M348.85,870.73l13.95,74.47L188.43,977c-5.77,11.34-15.62,18.54-26.66,18.54c-0.67,0-1.34-0.03-2.02-0.08
				c-17.4-1.38-30.88-20.34-30.88-42.4s13.48-40.51,30.88-41.24c0.35-0.01,0.71-0.02,1.06-0.02c5.72,0,11.16,1.93,15.92,5.37
				L348.85,870.73 M348.85,854.73c-1.39,0-2.8,0.18-4.17,0.55l-165.67,44.7c-5.76-2.75-11.93-4.18-18.2-4.18
				c-0.58,0-1.16,0.01-1.73,0.04c-25.92,1.08-46.22,26.21-46.22,57.22c0,14.06,4.24,27.67,11.95,38.33
				c8.58,11.87,20.54,18.98,33.67,20.02c1.09,0.09,2.2,0.13,3.29,0.13c14.39,0,27.61-7.38,36.58-20.09l167.31-30.51
				c4.19-0.76,7.9-3.16,10.31-6.67c2.41-3.51,3.33-7.83,2.54-12.01l-13.95-74.47c-0.82-4.38-3.44-8.23-7.21-10.6
				C354.79,855.56,351.84,854.73,348.85,854.73L348.85,854.73z"/>
		</g>
		<g>
			<path class="st9" d="M246.93,915.28c13.72,10.6,27.44,21.2,41.16,31.8c3.25,3.27,6.36,6.62,9.35,10.04l65.36-11.92l-13.95-74.47
				L224.9,904.17C232.37,907.41,239.72,911.1,246.93,915.28z"/>
		</g>
		<g>
			<path class="st10" d="M396.32,931.72c-3.81,0-7.12-2.7-7.85-6.47l-8.56-44c-0.74-3.81,1.36-7.6,4.98-8.99
				C559.04,805.2,729.84,724.97,892.55,633.8c147.57-82.68,291.18-175.89,426.86-277.03c1.42-1.06,3.1-1.59,4.78-1.59
				c1.9,0,3.79,0.67,5.3,2.01c2.84,2.51,3.53,6.66,1.66,9.95c-33.12,58.21-71.54,113.68-114.2,164.89
				c-59.59,71.53-127.79,135.21-202.71,189.25C905.5,799.72,783.56,857.45,651.8,892.87c-83.42,22.42-169.27,35.49-255.16,38.84
				C396.53,931.72,396.43,931.72,396.32,931.72z"/>
			<path d="M1324.19,363.18c-50.47,88.7-147.04,230.7-314.64,351.61C760.19,894.68,503.78,919.53,396.33,923.72
				c-2.85-14.67-5.7-29.33-8.56-44c153.35-59.05,325.95-136.55,508.69-238.94C1060.67,548.77,1203.08,453.47,1324.19,363.18
				 M1324.19,347.18c-3.35,0-6.71,1.05-9.56,3.17c-135.4,100.93-278.72,193.95-425.99,276.46
				C726.26,717.8,555.81,797.87,382.02,864.79c-7.24,2.79-11.44,10.37-9.96,17.99l1.39,7.16l7.16,36.84
				c1.47,7.54,8.07,12.95,15.7,12.95c0.21,0,0.42,0,0.63-0.01c86.48-3.37,172.93-16.53,256.93-39.11
				c132.7-35.67,255.52-93.82,365.03-172.82c75.47-54.44,144.16-118.57,204.18-190.62c42.96-51.57,81.65-107.44,115.01-166.06
				c3.75-6.58,2.36-14.89-3.31-19.9C1331.77,348.53,1327.99,347.18,1324.19,347.18L1324.19,347.18z"/>
		</g>
		<g>
			<path class="st11" d="M927.02,663.88c-22.34-0.07-44.38-1.21-66.14-3.4c-169.56,92.71-329.74,164.04-473.1,219.24
				c2.85,14.67,5.7,29.33,8.56,44c107.45-4.19,363.86-29.04,613.22-208.92c33.8-24.39,64.71-49.63,92.94-75.12
				C1046.83,658.12,988.34,666.19,927.02,663.88z"/>
		</g>
		<g>
			<path class="st12" d="M722.13,810.06c-45.9-0.14-90.58-4.79-134.03-13.91c-69.65,31.34-136.65,59.05-200.32,83.57
				c2.85,14.67,5.7,29.33,8.56,44c91.21-3.56,289.74-22,500.18-137.51C841.18,804.4,783.05,812.36,722.13,810.06z"/>
		</g>
		<g>
			<path d="M1324.19,363.18c-175.78,227.6-423.56,397.97-697.43,484.85c-76.39,24.43-155.39,42.41-234.81,53.19
				c72.69-15.37,144.69-34.58,214.98-58.5c12.47-4.27,27.87-9.77,40.35-14.23c8.92-3.41,23.04-8.81,31.96-12.22
				c10.77-4.25,36.84-14.83,47.47-19.45c10.46-4.64,24.8-10.85,35.22-15.46c27.03-12.48,54.19-25.79,80.64-39.35
				c10.46-5.74,35.04-18.72,45.05-24.47c10.63-6.2,26.36-15.26,36.98-21.39c13.54-8.37,37.52-22.99,50.74-31.66
				C1104.79,580.86,1221.79,478.21,1324.19,363.18L1324.19,363.18z"/>
		</g>
		<g>
			<path class="st8" d="M354.14,1058.41c-28.04,0-52.23-18.48-55.08-42.08c-1.15-9.51,1.23-20.09,6.53-29.04
				c5.97-10.08,15.03-17.04,25.51-19.59c2.95-0.72,5.98-1.08,9.02-1.08c6.59,0,12.55,1.71,17.48,3.91
				c-1.05-11.75-3-23.39-5.83-34.76c-8.48-34.05-24.58-65.46-47.85-93.34c-0.48-0.57-0.87-1.21-1.17-1.89
				c-1.46-3.3-13.76-33.02,4.37-59.09c3.86-5.54,18.19-23.62,40.88-23.62c0.84,0,1.69,0.03,2.53,0.08
				c21.7,1.3,44.81,19.75,44.63,45.15c-0.08,11.63-5.15,23.15-13.91,31.58c-5.28,5.09-11.56,8.83-18.37,11.02
				c28.08,30.62,48.12,63.35,58.3,95.4c11.25,35.4,9.01,66.44-6.3,87.39c-10.58,14.48-27.66,24.3-50.76,29.19
				c-0.18,0.04-0.36,0.07-0.54,0.09C360.44,1058.19,357.26,1058.41,354.14,1058.41z"/>
			<path d="M348,765.83c0.68,0,1.36,0.02,2.06,0.06c17.93,1.07,37.25,16.12,37.11,37.11c-0.14,19.73-17.43,36.96-38.96,36.96
				c-0.63,0-1.27-0.01-1.91-0.04c68.92,68.88,89.74,146.05,62.12,183.82c-5.51,7.54-17.78,20.12-45.95,26.08
				c-2.83,0.4-5.61,0.59-8.32,0.59c-25.28,0-44.91-16.59-47.14-35.04c-1.84-15.25,7.77-35.47,25.99-39.9
				c2.45-0.6,4.83-0.85,7.13-0.85c14.41,0,25.35,10.19,26.34,11.14c-0.32-14.87-2.09-32.54-6.91-51.91
				c-11.29-45.35-33.79-77.75-49.47-96.54c-0.8-1.82-12.14-28.61,3.62-51.28C315.98,782.72,328.36,765.83,348,765.83 M348,749.83
				c-26.57,0-43.03,20.71-47.44,27.06c-20.62,29.66-6.76,63.17-5.11,66.89c0.6,1.36,1.39,2.63,2.35,3.77
				c22.49,26.95,38.05,57.28,46.23,90.15c1.77,7.11,3.18,14.32,4.23,21.61c-2.59-0.45-5.3-0.7-8.13-0.7
				c-3.67,0-7.34,0.44-10.91,1.31c-12.59,3.06-23.42,11.34-30.5,23.29c-6.18,10.43-8.94,22.85-7.59,34.08
				c1.62,13.46,9.09,25.95,21.02,35.18c11.63,8.99,26.54,13.94,42,13.94c3.49,0,7.05-0.25,10.56-0.75c0.36-0.05,0.72-0.11,1.07-0.19
				c25.09-5.31,43.78-16.18,55.56-32.29c16.86-23.07,19.51-56.64,7.47-94.54c-9.62-30.28-27.67-61.06-52.71-90.16
				c3.84-2.23,7.44-4.94,10.71-8.09c10.3-9.92,16.26-23.51,16.36-37.29c0.1-14.26-5.91-27.71-16.91-37.89
				c-9.7-8.97-22.55-14.55-35.24-15.31C350,749.86,348.99,749.83,348,749.83L348,749.83z"/>
		</g>
		<g>
			<path class="st9" d="M351.83,908.92c2.51,1.33,5.02,2.69,7.5,4.13l41.16,31.8c6.69,6.73,12.81,13.79,18.4,21.16
				c-5.73-37.67-29.95-83.47-72.6-126.09c22.41,1.05,40.72-16.61,40.87-36.92c0.15-20.99-19.18-36.04-37.11-37.11
				c-20.82-1.24-33.99,16.72-36.36,20.13c-15.76,22.67-4.42,49.47-3.62,51.28C322.71,852.45,339.77,876.44,351.83,908.92z"/>
		</g>
		<g>
			<path d="M360.59,962.18c15.56,14.82,24.19,36.82,21.61,58.17c-1.66-10.98-6.11-21.37-12.93-29.97
				c-5-6.27-11.39-11.66-18.36-15.46C350.91,974.92,360.59,962.18,360.59,962.18L360.59,962.18z"/>
		</g>
		<g>
			<path d="M360.24,853.05c-17.94-11.83-30.33-31.95-31.58-53.42c3.58,10.51,9.8,19.95,18.04,27.21
				c6.04,5.28,13.28,9.46,20.81,11.96C367.51,838.8,360.24,853.05,360.24,853.05L360.24,853.05z"/>
		</g>
		<g>
			<path d="M187.81,982.18c1.53-10.27,1.56-20.99-1.61-30.96c-3.15-10.32-10.35-19.24-20.32-24.04
				c11.48,2.43,21.56,10.45,27.56,20.66c6.34,10.44,9.27,22.64,10.36,34.72C203.81,982.56,187.81,982.18,187.81,982.18
				L187.81,982.18z"/>
		</g>
		<g>
			<path d="M376.16,969.78c-11.08-51.52-29.16-93.57-60.59-135.99C355.77,865.73,378.63,918.68,376.16,969.78L376.16,969.78z"/>
		</g>
	</g>
	<g>
		<path d="M189.25,907.68c6.71,14.69,18.06,28.03,31.87,37.22c8.62,5.75,18.05,10.07,28.11,12.94c-10.53-0.9-21.12-3.5-30.95-7.65
			c-17.02-7.22-31.7-18.97-42.78-34.32C175.5,915.87,189.25,907.68,189.25,907.68L189.25,907.68z"/>
	</g>
	<g>
		<path d="M230.64,899.97c2.37,10.88,7.59,21.42,15.12,29.75c13.3,14.88,32.96,23.03,52.76,25.06c-16.73,1-33.84-2.24-48.75-10.47
			c-15.66-8.58-27.79-22.84-34.38-39.48C215.4,904.82,230.64,899.97,230.64,899.97L230.64,899.97z"/>
	</g>
	<g>
		<path d="M268.4,890.93c2.37,10.88,7.59,21.42,15.12,29.75c13.3,14.88,32.96,23.03,52.76,25.06c-16.73,1-33.84-2.24-48.75-10.47
			c-15.66-8.58-27.79-22.84-34.38-39.48C253.15,895.78,268.4,890.93,268.4,890.93L268.4,890.93z"/>
	</g>
	<g>
		<path d="M301.09,878.35c2.1,11.16,7.19,22.07,15.08,31.11c8.05,9.25,18.7,16.32,30.39,20.54c-12.84-1.77-25.29-6.77-35.8-14.65
			c-10.94-8.17-19.57-19.49-24.93-32.2C285.83,883.15,301.09,878.35,301.09,878.35L301.09,878.35z"/>
	</g>
	<g>
		<path d="M151.08,920.67c-13.54,15.42-16.14,37.26-3.58,54.02c3.88,5.25,8.96,9.65,14.81,13c-6.37-2.21-12.19-6.27-16.64-11.55
			C131.36,959.58,134.16,934.23,151.08,920.67L151.08,920.67z"/>
	</g>
	<g>
		<path d="M364.38,998.69c-1.82-4.48-4.54-8.52-8.16-11.55c-3.55-3.08-7.9-5.16-12.42-5.95c-2.27-0.36-4.57-0.43-6.82-0.14
			c-1.11,0.21-2.24,0.37-3.3,0.77c-0.53,0.19-1.09,0.3-1.59,0.55l-1.53,0.71c-1.96,1.09-3.83,2.36-5.36,4.04
			c-1.52,1.67-2.89,3.5-3.91,5.56c-2.13,4.05-3.3,8.64-3.52,13.25c-0.1,2.3-0.02,4.62,0.43,6.88c0.46,2.25,1.14,4.47,2.1,6.58
			c0.99,2.1,2.23,4.07,3.65,5.93c1.45,1.84,3.12,3.5,4.94,5c1.82,1.5,3.85,2.75,5.96,3.86c2.13,1.07,4.39,1.91,6.71,2.59
			c-2.39-0.37-4.77-0.94-7.05-1.83c-2.27-0.91-4.46-2.05-6.5-3.44c-2.01-1.43-3.89-3.07-5.56-4.91c-1.64-1.87-3.06-3.95-4.24-6.16
			c-1.16-2.23-2.01-4.62-2.57-7.08c-0.57-2.47-0.73-5-0.69-7.52c0.16-5.02,1.38-10.02,3.7-14.53c1.15-2.27,2.7-4.33,4.45-6.2
			c1.76-1.87,3.91-3.37,6.2-4.54l1.78-0.76c0.59-0.27,1.23-0.39,1.84-0.58c1.22-0.41,2.5-0.56,3.76-0.76
			c2.55-0.27,5.11-0.07,7.58,0.46c4.95,1.09,9.46,3.67,12.96,7.17C360.74,989.56,363.19,994.01,364.38,998.69z"/>
	</g>
	<g>
		<path d="M356.03,823.66c18.74-7.03,25.72-32.79,6.02-43.08c-18.48-9.43-38.72,0.54-44.08,20.27c3.26-21.92,25.9-32.94,45.47-22.92
			C384.84,789.03,377.77,818.23,356.03,823.66L356.03,823.66z"/>
	</g>
	<g>
		<path d="M355.17,1040.28c16.91-2.29,33.79-9.74,44.23-23.58c10.87-13.74,11.84-31.82,10.06-48.66c-0.73-8.53-2.97-16.8-6.11-24.76
			c-9.88-23.93-21.56-47.25-35.32-69.27c10.18,14.06,19.18,29.02,26.89,44.58c7.76,15.58,16.05,31.49,17.53,49.16
			c1.8,17.24,0.49,36.51-11.2,50.37C390.29,1032,372.46,1039.2,355.17,1040.28L355.17,1040.28z"/>
	</g>
	<g>
		<path d="M406.09,888.26c189.38-41.72,371.42-116.27,535.72-219.29c-163.9,103.95-345.73,179.48-535.07,222.22
			C406.75,891.19,406.09,888.26,406.09,888.26L406.09,888.26z"/>
	</g>
	<g>
		<path d="M894.4,744.46c168.92-93.43,316.46-225.01,428.57-382.15c0,0,2.44,1.75,2.44,1.75
			C1212.36,520.8,1063.99,651.8,894.4,744.46L894.4,744.46z"/>
	</g>
</g>
<g>
	<g>
		<g>
			<path class="st8" d="M1291.29,1003.54c-12.66,0-24.3-7.16-31.79-19.34l-170.67-31.12c-2.09-0.38-3.95-1.58-5.16-3.34
				c-1.21-1.75-1.66-3.92-1.27-6.01l13.95-74.47c0.41-2.19,1.72-4.11,3.61-5.3c1.29-0.81,2.76-1.23,4.26-1.23
				c0.7,0,1.4,0.09,2.08,0.28l168.69,45.52c5.39-3.1,11.28-4.72,17.26-4.72c0.46,0,0.93,0.01,1.39,0.03
				c21.62,0.9,38.55,22.52,38.55,49.23c0,26.55-16.8,48.68-38.25,50.38C1293.06,1003.5,1292.17,1003.54,1291.29,1003.54
				C1291.29,1003.54,1291.29,1003.54,1291.29,1003.54z"/>
			<path d="M1104.22,870.73l172.12,46.44c4.76-3.44,10.19-5.37,15.92-5.37c0.35,0,0.71,0.01,1.06,0.02
				c17.4,0.72,30.88,19.17,30.88,41.24s-13.48,41.02-30.88,42.4c-0.68,0.05-1.35,0.08-2.02,0.08c-11.03,0-20.89-7.2-26.66-18.54
				l-174.37-31.8L1104.22,870.73 M1104.22,854.73c-2.98,0-5.94,0.84-8.51,2.45c-3.78,2.37-6.39,6.22-7.21,10.6l-13.95,74.47
				c-0.78,4.18,0.13,8.51,2.54,12.01c2.41,3.51,6.12,5.91,10.31,6.67l167.31,30.51c8.98,12.71,22.19,20.09,36.58,20.09
				c1.09,0,2.2-0.04,3.29-0.13c13.13-1.04,25.09-8.15,33.67-20.02c7.71-10.66,11.95-24.27,11.95-38.33
				c0-31.01-20.3-56.14-46.22-57.22c-0.57-0.02-1.15-0.04-1.72-0.04c-6.27,0-12.44,1.43-18.2,4.18l-165.67-44.7
				C1107.01,854.91,1105.61,854.73,1104.22,854.73L1104.22,854.73z"/>
		</g>
		<g>
			<path class="st9" d="M1206.14,915.28c-13.72,10.6-27.44,21.2-41.16,31.8c-3.25,3.27-6.36,6.62-9.35,10.04l-65.36-11.92
				l13.95-74.47l123.95,33.45C1220.7,907.41,1213.35,911.1,1206.14,915.28z"/>
		</g>
		<g>
			<path class="st10" d="M1056.43,931.71c-85.89-3.35-171.74-16.42-255.16-38.84c-131.76-35.42-253.7-93.15-362.43-171.58
				c-74.92-54.05-143.12-117.72-202.71-189.25c-42.66-51.21-81.08-106.68-114.2-164.89c-1.87-3.29-1.18-7.44,1.66-9.95
				c1.51-1.33,3.4-2.01,5.3-2.01c1.68,0,3.36,0.52,4.78,1.59C269.33,457.91,412.95,551.12,560.52,633.8
				c162.71,91.17,333.51,171.4,507.66,238.45c3.62,1.39,5.72,5.18,4.98,8.99l-8.56,44c-0.73,3.77-4.04,6.47-7.85,6.47
				C1056.64,931.72,1056.53,931.72,1056.43,931.71z"/>
			<path d="M128.88,363.18c121.11,90.29,263.52,185.59,427.73,277.6c182.74,102.39,355.34,179.89,508.69,238.94
				c-2.85,14.67-5.7,29.33-8.56,44c-107.45-4.19-363.86-29.04-613.22-208.92C275.91,593.89,179.35,451.88,128.88,363.18
				 M128.88,347.18c-3.8,0-7.58,1.35-10.6,4.01c-5.67,5.01-7.06,13.32-3.31,19.9c33.35,58.62,72.05,114.49,115.01,166.06
				C290,609.2,358.69,673.33,434.16,727.77c109.52,79,232.33,137.15,365.03,172.82c84,22.58,170.44,35.74,256.93,39.11
				c0.21,0.01,0.42,0.01,0.63,0.01c7.62,0,14.23-5.4,15.7-12.95l3.05-15.68l5.51-28.32c1.48-7.62-2.72-15.2-9.96-17.99
				C897.26,797.87,726.81,717.8,564.43,626.82c-147.27-82.51-290.59-175.53-425.99-276.46
				C135.59,348.23,132.23,347.18,128.88,347.18L128.88,347.18z"/>
		</g>
		<g>
			<path class="st11" d="M526.05,663.88c22.34-0.07,44.38-1.21,66.14-3.4c169.56,92.71,329.74,164.04,473.1,219.24
				c-2.85,14.67-5.7,29.33-8.56,44c-107.45-4.19-363.86-29.04-613.22-208.92c-33.8-24.39-64.71-49.63-92.94-75.12
				C406.24,658.12,464.73,666.19,526.05,663.88z"/>
		</g>
		<g>
			<path class="st12" d="M730.94,810.06c45.9-0.14,90.58-4.79,134.03-13.91c69.65,31.34,136.65,59.05,200.32,83.57
				c-2.85,14.67-5.7,29.33-8.56,44c-91.21-3.56-289.74-22-500.18-137.51C611.89,804.4,670.02,812.36,730.94,810.06z"/>
		</g>
		<g>
			<path d="M128.88,363.18c102.4,115.03,219.41,217.68,348.84,301.31c13.17,8.63,37.23,23.31,50.74,31.66
				c10.61,6.12,26.35,15.2,36.98,21.39c9.88,5.68,34.73,18.81,45.05,24.47c26.44,13.56,53.62,26.87,80.64,39.35
				c10.43,4.62,24.78,10.83,35.22,15.46c10.73,4.66,36.61,15.16,47.47,19.45c8.92,3.41,23.04,8.81,31.96,12.22
				c12.48,4.47,27.82,9.94,40.35,14.24c70.29,23.92,142.29,43.13,214.98,58.5c-79.41-10.77-158.42-28.76-234.81-53.19
				C552.44,761.15,304.66,590.79,128.88,363.18L128.88,363.18z"/>
		</g>
		<g>
			<path class="st8" d="M1098.93,1058.41c-3.12,0-6.3-0.23-9.44-0.67c-0.18-0.03-0.36-0.06-0.54-0.09
				c-23.1-4.89-40.17-14.71-50.76-29.19c-15.32-20.96-17.55-51.99-6.3-87.39c10.18-32.05,30.22-64.79,58.3-95.4
				c-6.81-2.2-13.09-5.93-18.37-11.02c-8.76-8.44-13.83-19.95-13.91-31.58c-0.18-25.4,22.93-43.85,44.63-45.15
				c0.84-0.05,1.69-0.08,2.53-0.08c22.68,0,37.02,18.08,40.87,23.62c18.12,26.07,5.83,55.79,4.37,59.09
				c-0.3,0.68-0.7,1.32-1.17,1.89c-23.27,27.89-39.37,59.29-47.85,93.34c-2.83,11.36-4.78,23-5.83,34.76
				c4.94-2.2,10.89-3.91,17.48-3.91c3.04,0,6.07,0.36,9.02,1.08c10.48,2.55,19.54,9.51,25.51,19.59c5.3,8.95,7.68,19.53,6.53,29.04
				C1151.16,1039.93,1126.97,1058.41,1098.93,1058.41C1098.93,1058.41,1098.93,1058.41,1098.93,1058.41z"/>
			<path d="M1105.07,765.83c19.63,0,32.01,16.9,34.31,20.19c15.76,22.67,4.42,49.47,3.62,51.28
				c-15.68,18.79-38.18,51.19-49.47,96.54c-4.82,19.38-6.59,37.05-6.91,51.91c0.99-0.95,11.92-11.14,26.34-11.14
				c2.3,0,4.68,0.26,7.13,0.85c18.22,4.44,27.83,24.65,25.99,39.9c-2.23,18.45-21.85,35.04-47.14,35.04c-2.71,0-5.49-0.19-8.32-0.59
				c-28.17-5.97-40.44-18.54-45.96-26.08c-27.61-37.78-6.8-114.95,62.12-183.82c-0.64,0.03-1.27,0.04-1.91,0.04
				c-21.53,0-38.82-17.23-38.96-36.96c-0.15-20.99,19.18-36.04,37.11-37.11C1103.71,765.85,1104.4,765.83,1105.07,765.83
				 M1105.07,749.83L1105.07,749.83c-1,0-2.01,0.03-3.01,0.09c-12.69,0.76-25.54,6.34-35.24,15.31
				c-11.01,10.17-17.01,23.63-16.91,37.89c0.1,13.78,6.06,27.37,16.36,37.29c3.27,3.15,6.87,5.86,10.71,8.09
				c-25.05,29.09-43.09,59.88-52.71,90.16c-12.04,37.9-9.39,71.47,7.47,94.54c11.78,16.12,30.47,26.98,55.56,32.29
				c0.36,0.08,0.71,0.14,1.07,0.19c3.51,0.5,7.07,0.75,10.56,0.75c15.46,0,30.37-4.95,42-13.94c11.93-9.23,19.39-21.72,21.02-35.18
				c1.35-11.22-1.41-23.64-7.59-34.08c-7.08-11.95-17.91-20.23-30.5-23.29c-3.56-0.87-7.24-1.31-10.91-1.31
				c-2.83,0-5.54,0.25-8.13,0.7c1.05-7.29,2.46-14.51,4.23-21.61c8.18-32.87,23.74-63.2,46.23-90.15c0.95-1.14,1.74-2.41,2.35-3.77
				c1.65-3.72,15.51-37.23-5.11-66.9C1148.1,770.54,1131.64,749.83,1105.07,749.83L1105.07,749.83z"/>
		</g>
		<g>
			<path class="st9" d="M1101.24,908.92c-2.51,1.33-5.02,2.69-7.5,4.13l-41.16,31.8c-6.69,6.73-12.81,13.79-18.4,21.16
				c5.73-37.67,29.95-83.47,72.6-126.09c-22.41,1.05-40.72-16.61-40.87-36.92c-0.15-20.99,19.18-36.04,37.11-37.11
				c20.82-1.24,33.99,16.72,36.36,20.13c15.76,22.67,4.42,49.47,3.62,51.28C1130.36,852.45,1113.3,876.44,1101.24,908.92z"/>
		</g>
		<g>
			<path d="M1102.16,974.92c-12.34,6.72-22.17,17.88-27.38,31.03c-1.83,4.56-3.15,9.4-3.91,14.41c-0.57-5.03-0.58-10.2,0.03-15.37
				c1.84-16.19,9.81-31.47,21.58-42.8C1092.48,962.18,1102.16,974.92,1102.16,974.92L1102.16,974.92z"/>
		</g>
		<g>
			<path d="M1085.56,838.8c8.65-2.88,16.88-7.9,23.4-14.39c3.39-3.34,6.45-7.13,9.04-11.29c2.61-4.16,4.76-8.69,6.4-13.48
				c-0.67,10.33-3.79,20.56-9.08,29.63c-5.55,9.55-13.27,17.58-22.49,23.79C1092.83,853.05,1085.56,838.8,1085.56,838.8
				L1085.56,838.8z"/>
		</g>
		<g>
			<path d="M1249.26,982.56c1.77-23.42,12.85-49.87,37.92-55.37c-12.51,5.93-20.19,18.35-22.11,31.64
				c-1.26,7.72-0.97,15.64,0.19,23.36C1265.26,982.18,1249.26,982.56,1249.26,982.56L1249.26,982.56z"/>
		</g>
		<g>
			<path d="M1076.91,969.78c-2.47-51.1,20.39-104.05,60.59-136C1106.06,876.22,1087.98,918.27,1076.91,969.78L1076.91,969.78z"/>
		</g>
	</g>
	<g>
		<path d="M1277.57,915.87c-17.25,24.15-44.47,39.55-73.73,41.96c10.07-2.87,19.49-7.19,28.11-12.94
			c13.81-9.19,25.16-22.53,31.87-37.22C1263.82,907.68,1277.57,915.87,1277.57,915.87L1277.57,915.87z"/>
	</g>
	<g>
		<path d="M1237.67,904.82c-9.89,25.29-31.9,43.08-58.32,48.22c-8.24,1.64-16.59,2.28-24.81,1.73c20.3-2.06,40.36-10.62,53.73-26.11
			c6.97-8.21,11.92-18.25,14.16-28.69C1222.43,899.97,1237.67,904.82,1237.67,904.82L1237.67,904.82z"/>
	</g>
	<g>
		<path d="M1199.92,895.78c-9.89,25.29-31.9,43.08-58.32,48.22c-8.24,1.64-16.59,2.28-24.81,1.73c20.3-2.06,40.36-10.62,53.73-26.11
			c6.97-8.21,11.92-18.25,14.16-28.69C1184.67,890.93,1199.92,895.78,1199.92,895.78L1199.92,895.78z"/>
	</g>
	<g>
		<path d="M1167.24,883.15c-10.31,25.13-33.93,43.39-60.73,46.85c5.97-2.16,11.6-5.03,16.72-8.49c14.88-9.8,25.7-26.07,28.75-43.16
			C1151.97,878.35,1167.24,883.15,1167.24,883.15L1167.24,883.15z"/>
	</g>
	<g>
		<path d="M1301.98,920.67c16.93,13.56,19.72,38.91,5.42,55.48c-4.45,5.28-10.27,9.33-16.64,11.55c5.84-3.36,10.92-7.75,14.81-13
			C1318.13,957.94,1315.52,936.09,1301.98,920.67L1301.98,920.67z"/>
	</g>
	<g>
		<path d="M1088.69,998.69c5.44-21.74,34.64-28.8,45.74-7.41c10.02,19.57-1.01,42.22-22.92,45.47c19.73-5.37,29.7-25.6,20.27-44.08
			C1121.48,972.97,1095.71,979.96,1088.69,998.69L1088.69,998.69z"/>
	</g>
	<g>
		<path d="M1097.03,823.66c-21.74-5.44-28.8-34.64-7.41-45.74c19.57-10.02,42.22,1.01,45.47,22.92
			c-5.37-19.73-25.6-29.7-44.08-20.27C1071.31,790.88,1078.3,816.64,1097.03,823.66L1097.03,823.66z"/>
	</g>
	<g>
		<path d="M1097.9,1040.28c-17.29-1.08-35.12-8.28-46.07-22.14c-11.69-13.87-13.01-33.13-11.2-50.37
			c1.48-17.67,9.76-33.58,17.53-49.16c7.71-15.56,16.71-30.52,26.89-44.58c-13.76,22.02-25.44,45.34-35.32,69.27
			c-3.14,7.96-5.39,16.23-6.11,24.76c-1.78,16.83-0.81,34.93,10.06,48.66C1064.11,1030.54,1080.98,1037.99,1097.9,1040.28
			L1097.9,1040.28z"/>
	</g>
	<g>
		<path d="M1046.32,891.19c-189.33-42.74-371.17-118.27-535.07-222.22C634.5,746.2,767.69,807.54,906.52,850.9
			c46.25,14.47,93.14,26.88,140.45,37.36L1046.32,891.19L1046.32,891.19z"/>
	</g>
	<g>
		<path d="M558.67,744.46C389.08,651.8,240.71,520.8,127.66,364.06c0,0,2.44-1.75,2.44-1.75
			C242.2,519.44,389.74,651.02,558.67,744.46L558.67,744.46z"/>
	</g>
</g>
<g>
	<path class="st2" d="M798.1,408.8c-12.98,16.77-34.81,42.92-65.89,70.79c-49.87,44.71-103.3,92.63-154.1,78.64
		c-10.92-3.01-33.35-12.08-54.4-46.72"/>
	<g>
		<g>
			<path class="st13" d="M715.07,947.1c-1.73,0-3.41-0.56-4.8-1.6c-8.44-6.33-16.32-13.3-23.43-20.72
				c-24.63-25.75-31.29-47.95-38.34-71.45c-4.69-15.62-9.53-31.78-20.09-51.01c-6.85-12.49-26.19-34.82-64.71-79.32
				c-2.29-2.64-4.5-5.18-6.64-7.64c-20.35-23.36-35.06-40.23-44.97-67.21c-3.62-9.84-9.68-30.14-9.68-55.6
				c0-72.1,51.49-121.79,61.81-131.02c55.25-49.4,124.76-56.77,161.27-56.77h2.07c36.51,0,106.02,7.38,161.27,56.77
				c10.32,9.23,61.81,58.92,61.81,131.01c0,25.46-6.06,45.76-9.68,55.6c-9.91,26.97-24.61,43.85-44.96,67.2
				c-2.14,2.45-4.35,4.99-6.64,7.64c-38.53,44.51-57.86,66.84-64.71,79.32c-10.55,19.23-15.4,35.39-20.09,51.01
				c-7.05,23.5-13.71,45.71-38.34,71.45c-7.1,7.43-14.98,14.4-23.43,20.72c-1.38,1.04-3.07,1.6-4.8,1.6H715.07z"/>
			<path d="M727.09,412.75c0.08,0,0.16,0,0.24,0c0.08,0,0.16,0,0.24,0c32.13,0,101.56,6.12,155.94,54.74
				c5.6,5.01,59.14,53.94,59.14,125.05c0,25.82-6.62,45.86-9.19,52.85c-10.39,28.27-25.98,44.45-50.15,72.36
				c-38.94,44.98-58.42,67.48-65.68,80.71c-27.14,49.47-18.12,79.93-57.2,120.78c-8.64,9.03-16.85,15.66-22.44,19.85
				c-7.64,0-15.29,0-22.93,0c-5.59-4.19-13.8-10.82-22.44-19.85c-39.08-40.85-30.05-71.31-57.2-120.78
				c-7.26-13.23-26.73-35.72-65.68-80.71c-24.16-27.91-39.76-44.09-50.15-72.36c-2.57-6.99-9.19-27.02-9.19-52.85
				c0-71.11,53.54-120.04,59.15-125.05c54.38-48.62,123.81-54.74,155.94-54.74c0.08,0,0.16,0,0.24,0c0.08,0,0.16,0,0.24,0
				c0.13,0,0.26,0,0.38,0c0.06,0,0.12,0,0.17,0c0.06,0,0.11,0,0.17,0C726.83,412.75,726.96,412.75,727.09,412.75 M727.09,396.75
				l-0.22,0l-0.16,0l-0.11,0c-0.02,0-0.04,0-0.06,0s-0.04,0-0.06,0l-0.11,0l-0.16,0l-0.22,0l-0.22,0l-0.25,0
				c-17.3,0-44.14,1.68-73.8,9.69c-36,9.72-67.22,26.25-92.81,49.12c-10.77,9.63-64.48,61.47-64.48,136.98
				c0,26.7,6.37,48.03,10.17,58.36c10.42,28.36,25.53,45.7,46.44,69.7c2.13,2.45,4.34,4.98,6.62,7.62
				c36.95,42.68,57.3,66.19,63.75,77.93c10.15,18.49,14.87,34.24,19.44,49.46c7.34,24.45,14.26,47.55,40.22,74.68
				c7.41,7.74,15.62,15.01,24.41,21.6c2.77,2.08,6.14,3.2,9.6,3.2H738c3.46,0,6.83-1.12,9.6-3.2c8.79-6.59,17-13.86,24.41-21.6
				c25.96-27.13,32.89-50.23,40.22-74.68c4.57-15.23,9.29-30.97,19.44-49.46c6.44-11.74,26.79-35.25,63.74-77.92
				c2.3-2.65,4.5-5.18,6.64-7.63c20.91-24,36.02-41.34,46.44-69.7c3.8-10.34,10.17-31.67,10.17-58.36
				c0-75.5-53.71-127.35-64.48-136.98c-25.58-22.87-56.81-39.4-92.81-49.12c-29.66-8.01-56.5-9.69-73.8-9.69l-0.25,0L727.09,396.75
				L727.09,396.75z"/>
		</g>
	</g>
	<g>
		<g>
			<path class="st14" d="M936.21,614.7c-9.26,28.47-25.09,53.11-47.48,73.91c-20.8,22.39-45.44,38.22-73.91,47.48
				c-15.18,2.99-26.62,8.47-34.99,13.83c-61.33,39.31-53.96,134.56-53.29,141.92c0.49-9.74,3.55-97.64-60.76-144.04
				c-19.42-14.01-39.57-20.34-55.35-23.28c-15.49-11.97-30.99-23.94-46.48-35.91c-23.78-23.94-41.4-51.46-52.93-82.55
				c1.69,19.19,6.49,33.62,8.59,39.33c10.39,28.27,25.98,44.45,50.15,72.36c38.95,44.98,58.42,67.48,65.68,80.71
				c27.15,49.47,18.12,79.93,57.2,120.78c8.64,9.03,16.85,15.66,22.44,19.85H738c5.59-4.19,13.8-10.82,22.44-19.85
				c39.08-40.85,30.05-71.31,57.2-120.78c7.26-13.23,26.73-35.72,65.68-80.71c24.16-27.91,39.76-44.09,50.15-72.36
				c2.26-6.14,7.64-22.36,8.91-43.72C940.32,606.01,938.27,610.36,936.21,614.7z"/>
		</g>
	</g>
	<g>
		<g>
			<path d="M577.81,748.36c18.64-32.31,35.37-67.61,50.74-101.71c12.36-27.2,25.62-51.93,52.29-67.6
				c8.26-4.93,17.15-8.67,26.31-11.26c-30.09,10.41-51.51,33.3-63.3,62.25c-9.74,22.88-18.89,50.25-28.5,73.17
				c-7.27,17.73-15.05,35.29-23.37,52.59L577.81,748.36L577.81,748.36z"/>
		</g>
		<g>
			<path d="M861.09,755.8c-16.53-33.94-30.86-70.57-43.95-106.04c-6.66-17.42-13.64-35.3-25.5-49.89
				c-11.63-14.66-27.81-25.68-45.73-32.08c13.77,3.88,26.98,10.45,38.17,19.52c19.15,15.2,30.49,37.53,40.43,59.34
				c6.96,15.19,16.79,36.89,24.15,51.63c8.39,16.97,17.24,33.67,26.6,50.08L861.09,755.8L861.09,755.8z"/>
		</g>
	</g>
	<g>
		<path d="M726.53,891.85c-6.34-34.4-7.78-69.53-8-104.41c0.06-30.5,1.45-61.11,5.77-91.36c0.64-4.35,1.34-8.7,2.23-13.05
			c0.89,4.35,1.59,8.7,2.23,13.05c4.32,30.25,5.71,60.86,5.77,91.36C734.31,822.32,732.88,857.45,726.53,891.85L726.53,891.85z"/>
	</g>
	<g>
		<g>
			<path d="M707.94,949.28c-15.6-28.66-25.96-60.17-29.66-92.38c8.79,30.46,23.65,58.89,43.05,83.63
				C721.34,940.53,707.94,949.28,707.94,949.28L707.94,949.28z"/>
		</g>
		<g>
			<path d="M731.73,940.53c19.41-24.74,34.26-53.18,43.05-83.63c-1.84,15.92-5.29,31.78-10.28,47.27
				c-4.98,15.5-11.5,30.62-19.38,45.11L731.73,940.53L731.73,940.53z"/>
		</g>
	</g>
	<g>
		<path class="st2" d="M798.1,408.8c-12.98,16.77-34.81,42.92-65.89,70.79c-49.87,44.71-103.3,92.63-154.1,78.64
			c-10.92-3.01-33.35-12.08-54.4-46.72"/>
		<g>
			<path class="st15" d="M586.46,661.95c-15.31-9.31-48.88-34.03-51.66-73.2c-1.94-27.35,11.9-48.64,20.33-58.89
				c2.98-3.62,29.78-35.41,53.29-35.41c1.68,0,3.33,0.17,4.9,0.51c9.88,2.14,18.83,11.28,24.55,25.09
				c6.33,15.27,8.08,34.68,4.99,54.89c-11.28,8.98-21.21,19.1-29.55,30.14C600.25,622.34,591.24,641.43,586.46,661.95z"/>
			<path d="M608.42,500.95c1.22,0,2.41,0.12,3.52,0.36c7.65,1.66,15.1,9.59,19.92,21.22c5.63,13.57,7.34,30.8,4.92,48.95
				c-10.87,8.91-20.5,18.87-28.66,29.67c-11.71,15.49-20.3,32.4-25.65,50.45c-15.71-11.02-38.99-32.38-41.19-63.32
				c-1.78-25.11,11.05-44.8,18.86-54.3C573.22,518.08,593.91,500.95,608.42,500.95 M608.42,487.95c-26.68,0-54.86,33.58-58.32,37.78
				c-8.16,9.93-23.95,32.98-21.79,63.47c3.76,53.04,58.44,80.64,62.75,82.74c2.51-14.72,8.95-38.52,27.42-62.95
				c10.07-13.31,21.06-23.31,30.37-30.51c8.23-47.84-10.14-84.68-34.17-89.88C612.62,488.16,610.52,487.95,608.42,487.95
				L608.42,487.95z"/>
		</g>
		<path d="M804.21,578.49c-8.23-47.84,10.14-84.68,34.17-89.88c28.35-6.14,60.86,32.59,64.59,37.13
			c8.16,9.93,23.95,32.98,21.79,63.47c-3.76,53.04-58.44,80.64-62.75,82.74c-2.51-14.72-8.95-38.52-27.42-62.95
			C824.51,595.69,813.52,585.69,804.21,578.49z"/>
	</g>
	<g>
		<path d="M670.73,628.56c-10.08,19.18-2.62,42.93,3.29,43.38c3.62,0.28,8.48-12.47,18.21-37.96c9.55-25.04,8.3-27.07,7.21-27.72
			C695.11,603.72,678.33,614.1,670.73,628.56z"/>
		<path d="M782.34,628.56c10.08,19.18,2.62,42.93-3.29,43.38c-3.62,0.28-8.48-12.47-18.21-37.96c-9.55-25.04-8.3-27.07-7.21-27.72
			C757.96,603.72,774.74,614.1,782.34,628.56z"/>
	</g>
	<g>
		<g>
			<path class="st13" d="M598.19,651.27c-10.22-4.04-21.87-9.51-33.82-16.93c-24.07-14.95-39.21-31.53-48.31-43.63
				c-2.87-0.07-7.48,0.15-11.96,2.16c-5.63,2.52-5.63,5.41-13.99,15.31c-5.95,7.04-8.35,8.43-8.56,12.2
				c-0.21,3.91,2.11,7.15,3.92,9.12c12.22,11.19,25.84,22.83,40.99,34.66c18.71,14.62,37.08,27.45,54.5,38.65"/>
			<path d="M598.19,651.27c-25.68-6.14-49.86-18.93-69.63-36.49c-6.69-5.94-12.9-12.49-18.49-19.56l5.82,2.99
				c-3.4,0.06-6.91,0.63-9.68,2.35c-0.39,0.28-0.6,0.48-1.07,1.04c-1.97,2.54-4.12,5.75-6.31,8.48c-2.77,3.66-6.41,7.47-9.26,10.85
				c-0.17,0.22-0.18,0.28-0.17,0.22c0.05-0.08,0.09-0.28,0.1-0.34c-0.01,1.02,0.55,1.87,1.77,3.39c0,0-0.49-0.49-0.49-0.49
				c21.67,20.42,44.44,40.19,67.18,59.45c7.65,6.5,15.37,12.97,23.01,19.65c-18.47-8.43-35.97-18.75-52.78-30.09
				c-16.78-11.35-32.91-23.95-48.02-37.43c-5.05-4.67-8.64-13.63-5.26-20.75c1.11-2.51,3.12-4.76,4.59-6.41
				c2.28-2.49,4.78-5.33,6.87-7.93c6.53-8.44,9.21-14,20.8-16.35c3.09-0.63,6.15-0.76,9.08-0.64c2.36,0.01,4.53,1.19,5.82,2.99
				c7.17,10.06,15.46,19.44,24.5,27.94C562.03,628.76,579.64,640.67,598.19,651.27L598.19,651.27z"/>
		</g>
		<g>
			<path class="st13" d="M854.88,651.27c10.22-4.04,21.87-9.51,33.82-16.93c24.07-14.95,39.21-31.53,48.31-43.63
				c2.87-0.07,7.48,0.15,11.96,2.16c5.63,2.52,5.63,5.41,13.99,15.31c5.95,7.04,8.35,8.43,8.56,12.2c0.21,3.91-2.11,7.15-3.92,9.12
				c-12.22,11.19-25.84,22.83-40.99,34.66c-18.71,14.62-37.08,27.45-54.5,38.65"/>
			<path d="M854.88,651.27c18.55-10.6,36.16-22.51,51.63-37.13c9.04-8.49,17.34-17.88,24.5-27.94c1.4-1.96,3.58-2.97,5.82-2.99
				c2.93-0.13,5.99,0,9.08,0.64c11.58,2.35,14.27,7.91,20.8,16.35c2.08,2.59,4.6,5.44,6.87,7.93c1.46,1.66,3.47,3.9,4.59,6.41
				c3.38,7.12-0.2,16.08-5.26,20.75c-15.1,13.48-31.24,26.08-48.02,37.43c-16.81,11.34-34.32,21.66-52.78,30.09
				c7.64-6.68,15.36-13.15,23.01-19.65c22.74-19.26,45.51-39.04,67.18-59.45c0,0-0.49,0.49-0.49,0.49c1.22-1.52,1.77-2.37,1.77-3.39
				c-0.03,0.16,0.29,0.64-0.07,0.12c-2.87-3.38-6.49-7.19-9.26-10.85c-2.19-2.73-4.34-5.95-6.31-8.48
				c-0.47-0.55-0.69-0.76-1.07-1.04c-2.77-1.72-6.27-2.29-9.68-2.35c0,0,5.82-2.99,5.82-2.99c-5.59,7.08-11.8,13.62-18.49,19.56
				C904.74,632.34,880.56,645.13,854.88,651.27L854.88,651.27z"/>
		</g>
	</g>
	<g>
		<g>
			<path d="M595.78,651.87c-1.56-11.07,1.46-22.19,6.71-31.84c3.92-6.84,11.17-11.33,16.13-17.01c4.09-4.61,7.31-9.82,10.33-15.2
				c3.09-5.55,6.93-10.64,11.6-14.96c4.54-4.41,9.47-8.57,15.11-11.56c8.43-4.46,17.88-7.11,27.42-7.5c3.2-0.1,6.41,0.03,9.65,0.64
				l0.39,1.55c-2.52,2.09-5.03,3.87-7.49,5.62c-7.08,4.94-14.16,9.73-21.34,14.44c-4.64,3.02-9.55,5.61-14.32,8.62
				c-9.34,6.74-21.19,10.96-27.21,21.39c-3.09,5.03-4.08,11.31-5.99,16.76c-1.94,5.48-5.06,10.23-8.12,15.14
				c-3.37,5.12-6.79,9.96-11.35,14.4C597.3,652.38,595.78,651.87,595.78,651.87L595.78,651.87z"/>
		</g>
		<g>
			<path d="M855.77,652.38c-4.56-4.44-7.98-9.28-11.35-14.4c-3.06-4.91-6.18-9.66-8.12-15.14c-1.92-5.45-2.9-11.73-5.99-16.76
				c-5.23-9.26-15.25-13.43-23.68-19.07c-5.78-3.96-12.04-7.2-17.86-10.94c-7.18-4.71-14.26-9.49-21.34-14.44
				c-2.46-1.75-4.97-3.54-7.49-5.62l0.39-1.55c3.25-0.61,6.46-0.74,9.65-0.64c9.54,0.39,18.99,3.04,27.42,7.5
				c8.36,4.59,15.47,11.26,21.53,18.54c5.54,7.5,9.16,16.28,15.51,23.18c3.96,4.57,9.43,8.3,13.44,13.18
				c3.95,4.85,6.21,10.79,7.94,16.74c1.62,6.18,2.47,12.45,1.45,18.93C857.29,651.87,855.77,652.38,855.77,652.38L855.77,652.38z"/>
		</g>
	</g>
</g>
<g>
	<path class="st3" d="M783.4,349.57c0.96,1.54,1.54,3.24,2.18,4.93c0.09,0.24-0.06,0.54,0.21,0.71c0,0.8-0.01,1.61-0.01,2.41
		c-0.28,0.82-0.75,1.54-1.16,2.3c-0.66,1.2-1.77,1.72-2.81,2.37c-1.22,0.77-1.98,1.89-2.77,3.03c-0.42,0.61-0.77,1.25-1.04,1.94
		c-0.54,1.41-1.27,2.74-2.27,3.86c-0.72,0.81-1.77,1.21-2.78,1.63c-1.2,0.5-2.44,0.56-3.71,0.34c-0.4-0.1-0.81-0.19-1.21-0.29
		c-1.22-0.79-2.05-1.96-2.98-3.05c-0.82-0.97-1.52-2.03-2.41-2.93c0,0-0.02-0.02-0.02-0.02c-0.04-0.04-0.07-0.08-0.11-0.12
		c-0.66-0.7-1.31-1.4-1.97-2.1c-0.46-0.56-0.84-1.2-1.6-1.43c-0.74-0.82-1.46-1.67-2.45-2.23c-0.13-0.14-0.26-0.27-0.39-0.41
		c0-0.03-0.02-0.05-0.05-0.05c-0.83-0.81-1.73-1.54-2.74-2.11c-0.94-0.84-2.01-1.5-3.07-2.16c-1.52-0.95-3.1-1.82-4.59-2.84
		c-1.53-1.05-3.1-2.02-4.61-3.1c-3.5-2.49-7.04-4.93-10.62-7.3c-2.37-1.56-4.86-2.93-7.25-4.46c-1.55-0.99-3.01-2.13-4.51-3.2
		c-0.12-0.09-0.19-0.22-0.41-0.12c-0.65,0.3-1.34,0.52-1.98,0.84c-3.76,1.85-7.53,3.71-11.23,5.69c-2.06,1.11-4.23,1.99-6.35,2.96
		c-1.88,0.86-3.63,1.99-5.39,3.09c-1.26,0.79-2.48,1.67-3.35,2.9c-1.17,1.66-2.39,3.27-3.65,4.86c-0.88,1.11-1.71,2.27-2.34,3.55
		c-0.85,1.36-1.69,2.72-3.3,3.33c-0.5,0.02-0.95,0.28-1.4,0.43c-0.46,0.15-1.05-0.03-1.4,0.45c-0.3-0.04-0.59-0.01-0.9,0.07
		c-1.54,0.38-3.1,0.51-4.69,0.37c-0.72-0.08-1.4-0.24-1.98-0.71c-0.33-0.41-0.66-0.81-1-1.22c-0.3-0.51-0.7-0.95-1.05-1.42
		c-0.57-0.77-1.18-1.51-1.68-2.32c-0.25-0.41-0.53-0.79-0.93-1.06c-0.14-0.56-0.49-0.94-1-1.2c-0.93-0.94-2.09-1.58-3.17-2.32
		c-0.01-0.2-0.1-0.33-0.32-0.36c-0.96-0.11-1.92-0.23-2.88-0.35c-0.81-0.26-1.63-0.44-2.39-0.85c-0.96-0.52-1.47-1.24-1.39-2.35
		c0.22-0.17,0.1-0.42,0.1-0.62c-0.01-1.19,0.12-2.37,0.23-3.55c0.01-0.16,0.02-0.33,0.03-0.49c0.33-1.08,0.67-2.15,1.12-3.19
		c0.7-1.61,1.53-3.09,3.31-3.75c0.91-0.34,1.86-0.5,2.81-0.64c2.08-0.29,4.14-0.7,6.14-1.33c3.38-1.06,6.68-2.34,10.02-3.52
		c2.37-0.84,4.71-1.74,7.14-2.39c3.28-0.87,6.49-1.94,9.64-3.19c1.82-0.72,3.52-1.7,5.4-2.28c0.51-0.16,1.08-0.19,1.53-0.55
		c-1.12-0.78-2.2-1.55-3.3-2.3c-3.44-2.33-6.9-4.63-10.34-6.97c-2.97-2.01-5.97-3.97-9.04-5.82c-2.54-1.53-5.07-3.08-7.54-4.73
		c-1.58-1.06-3.12-2.15-4.89-2.9c-1.03-0.43-2.15-0.72-3.02-1.48c-0.09-0.08-0.31-0.1-0.43,0.08c-0.97,0-1.94,0.07-2.91-0.04
		c-0.69-0.1-1.38-0.2-2.07-0.32c-2.79-0.47-4.98-1.92-6.65-4.17c-1.16-1.57-1.54-3.35-1.33-5.26c0.08-0.75,0.21-1.53,0.65-2.16
		c1.46-2.09,3.32-3.51,6.03-3.35c0.56,0.03,0.87-0.18,1.17-0.65c0.96-1.56,1.55-3.29,2.32-4.93c0.69-1.47,1.28-3.06,3-3.71
		c0.5-0.19,1.01-0.35,1.52-0.53c1.13-0.18,2.26-0.07,3.4-0.1c0.67-0.01,1.3,0.17,1.93,0.39c1.81,0.64,3.17,1.94,4.55,3.19
		c1.32,1.2,2.39,2.62,3.47,4.02c0,0.04,0.01,0.08,0.03,0.11c0.62,1.36,1.33,2.67,1.9,4.06c0.31,0.74,0.77,1.45,1.38,1.95
		c1.67,1.36,3.35,2.71,5.11,3.95c1.85,1.32,3.79,2.52,5.7,3.74c3.63,2.32,7.2,4.71,10.75,7.15c3.27,2.25,6.63,4.36,9.91,6.58
		c2.47,1.67,5.03,3.17,7.64,4.61c0.33,0.18,0.68,0.34,1.09,0.27c1.38-0.24,2.68-0.73,3.98-1.24c1.82-0.72,3.53-1.67,5.38-2.33
		c1.35-0.48,2.73-0.92,4-1.58c3.27-1.68,6.65-3.07,10.06-4.43c1.76-0.7,3.54-1.38,5.2-2.32c1.46-0.83,2.95-1.61,4.42-2.41
		c1.79-0.98,3.61-1.9,5.35-2.96c2.77-1.68,5.52-3.4,8.18-5.26c0.42-0.29,0.85-0.56,1.21-0.97c0.89-1,1.23-2.19,1.58-3.43
		c0.51-1.84,1.28-3.53,2.96-4.66c1.92-1.29,4.05-1.83,6.32-1.67c1.15,0.08,2.28,0.48,3.18,1.26c0.73,0.64,1.16,1.45,1.28,2.5
		c0.12,1.05,0.58,2.06,0.89,3.09c0.08,0.28,0.05,0.63,0.27,0.82c1.17,1.01,2.38,1.97,3.82,2.58c0.82,0.35,1.56,0.84,2.13,1.52
		c1.29,1.53,1.41,3.32,0.99,5.17c-0.27,1.19-0.95,2.23-1.39,3.36c-1.26,3.28-3.7,5.23-6.92,6.36c-2.18,0.77-4.43,1.26-6.69,1.75
		c-3.05,0.65-6.06,1.53-9.05,2.42c-4.79,1.43-9.52,3.07-14.19,4.84c-2.51,0.96-4.97,2.05-7.51,2.94c-2.33,0.82-4.8,1.19-7.04,2.26
		c-1.25,0.59-2.53,1.1-3.73,1.87c1.63,1.4,3.28,2.72,5.04,3.87c3.27,2.13,6.5,4.31,9.91,6.22c2.54,1.43,5.04,2.94,7.52,4.47
		c2.25,1.39,4.59,2.62,6.86,3.97c0.95,0.57,1.92,1.1,2.98,1.5c-0.08-0.5-0.08-0.5,0.34-0.37c1.09,0.34,2.1,0.87,3.11,1.37
		c0.28,0.21,0.54,0.47,0.85,0.64c0.71,0.38,1.26,1.02,2.1,1.21c1.34,0.29,2.71,0.28,4.06,0.45
		C781.04,347.76,782.38,348.32,783.4,349.57z M665.69,299.63c1.06,0.4,2.06,0.81,3.09,1.16c1.06,0.36,1.93,1.02,2.85,1.62
		c2.91,1.89,5.95,3.57,8.93,5.35c4.68,2.79,9.14,5.88,13.69,8.87c3.13,2.06,6.2,4.22,9.35,6.26c4.23,2.75,8.48,5.48,12.63,8.36
		c2.56,1.78,5.08,3.63,7.64,5.42c1.98,1.38,4.14,2.45,6.18,3.74c3.36,2.13,6.56,4.5,9.88,6.7c3.15,2.08,6.23,4.27,9.49,6.17
		c3.44,2,6.66,4.31,9.63,6.95c1.49,1.33,2.92,2.72,4.25,4.21c1.53,1.71,2.93,3.51,4.35,5.3c1.01,1.27,2.31,1.54,3.64,1.31
		c2.42-0.41,4.09-1.97,4.93-4.25c0.62-1.68,1.61-3.12,2.6-4.57c0.4-0.59,0.95-1.01,1.52-1.44c1.04-0.8,2.36-1.17,3.18-2.34
		c0.6-0.87,0.78-1.72,0.62-2.71c-0.24-1.5-0.96-2.81-1.56-4.17c-0.42-0.95-1.16-1.64-2.22-1.87c-1.49-0.33-3.02-0.36-4.54-0.51
		c-1.09-0.11-2.13-0.42-3.14-0.84c-0.45-0.19-0.86-0.45-1.31-0.63c-3.56-1.46-6.91-3.31-10.21-5.26c-2.33-1.38-4.65-2.77-6.96-4.17
		c-2.47-1.5-5.02-2.85-7.47-4.39c-4.41-2.77-8.7-5.7-12.68-9.07c-2.48-2.1-5.22-3.84-8.11-5.32c-2.76-1.42-5.47-2.94-8.19-4.44
		c-2.37-1.31-4.6-2.85-6.84-4.36c-3.63-2.45-7.3-4.84-10.87-7.37c-3.05-2.16-6.22-4.17-9.4-6.14c-2.98-1.85-5.81-3.91-8.61-6.02
		c-1.57-1.19-2.73-2.65-3.46-4.47c-0.48-1.2-0.98-2.38-1.67-3.48c-0.54-0.86-1.23-1.61-1.9-2.36c-1.12-1.26-2.36-2.4-3.77-3.33
		c-1.35-0.9-2.87-1.01-4.43-0.98c-2.05,0.03-3.57,0.82-4.46,2.75c-0.88,1.91-1.62,3.89-2.69,5.71c-0.52,0.88-1,1.86-2.2,2.05
		c-0.27,0.04-0.47,0.04-0.64-0.19c-0.16-0.22-0.13-0.42,0.06-0.6c0.11-0.1,0.14-0.22,0.09-0.32c-0.09-0.16-0.23-0.05-0.36-0.03
		c-1.15,0.2-2.02,0.91-2.9,1.59c-1.39,1.08-2,3.21-1.52,4.89c0.63,2.19,2.2,3.53,4.06,4.59c1.68,0.96,3.58,1.05,5.44,1.22
		c1.35,0.12,2.67-0.28,4.02-0.39c1.88-0.14,3.75-0.27,5.63-0.08c0.4,0.04,1.31,0.74,1.32,0.97c0,0.29-0.85,0.73-1.43,0.74
		c-0.12,0-0.24,0-0.37,0C669.12,299.46,667.41,299.4,665.69,299.63z M666.95,355.78c1.39,1.48,2.64,2.98,3.66,4.61
		c0.83,1.32,1.94,1.55,3.3,1.55c2.09,0,4.05-0.57,6.01-1.22c0.83-0.27,1.44-0.72,1.85-1.49c0.39-0.74,0.86-1.44,1.28-2.15
		c1.18-2,2.71-3.75,4.04-5.64c1.02-1.45,1.96-2.95,3.42-4.03c2.46-1.83,5.07-3.4,7.84-4.7c2.04-0.96,4.14-1.82,6.13-2.89
		c3.98-2.15,8.04-4.11,12.13-6.02c-0.05-0.04-0.11-0.09-0.17-0.13c-4.37-3.09-8.86-6.02-13.35-8.93c-0.14-0.09-0.29-0.15-0.47-0.04
		c-1.38,0.89-2.93,1.45-4.36,2.23c-1.12,0.61-2.23,1.23-3.43,1.69c-3.04,1.16-6.1,2.22-9.22,3.15c-4.71,1.4-9.28,3.26-13.9,4.93
		c-3.43,1.24-6.94,2.07-10.54,2.58c-1.31,0.19-2.39,0.74-3.07,2.04c-1.25,2.42-1.64,4.99-1.63,7.66c0,1.12,0.01,1.14,1.07,1.52
		c0.06,0.02,0.12,0.01,0.18,0.03c1.48,0.5,3.02,0.63,4.56,0.73c0.76,0.05,1.45,0.23,1.92,0.91c0.2,0.28,0.47,0.48,0.81,0.59
		c2.3,0.76,4.25,2.14,6.27,3.42c0.29,0.18,0.48,0.41,0.64,0.68c0.22,0.38,0.21,0.73-0.23,0.91c-0.51,0.21-1.04,0.39-1.57-0.03
		c-0.55-0.43-1.13-0.83-1.73-1.2C667.95,356.28,667.56,355.93,666.95,355.78z M787.45,292c0.18,0.43,0.44,0.77,0.73,1.11
		c0.26,0.3,0.63,0.62,0.34,1.1c-0.33,0.54-1.31,0.66-1.73,0.19c-0.76-0.85-1.47-1.78-1.84-2.86c-0.56-1.64-0.99-3.32-1.5-4.98
		c-0.08-0.26-0.1-0.5-0.12-0.76c-0.04-0.71-0.31-1.38-0.93-1.72c-0.8-0.43-1.67-0.71-2.6-0.78c-1.26-0.09-2.41,0.27-3.55,0.74
		c-0.93,0.38-1.68,0.98-2.22,1.85c-0.57,0.93-0.87,1.94-1.11,2.98c-0.44,1.87-1.46,3.36-3.01,4.46c-1.64,1.15-3.28,2.3-5.01,3.3
		c-1.63,0.95-3.15,2.06-4.81,2.95c-1.91,1.02-3.8,2.06-5.72,3.06c-1.81,0.94-3.54,2.06-5.44,2.83c-2.88,1.17-5.78,2.31-8.63,3.56
		c-3.15,1.39-6.24,2.92-9.53,4.01c-2.51,0.83-4.86,2.1-7.46,2.62c0,0.15,0.06,0.18,0.14,0.22c4.06,2,8.03,4.13,11.53,7.04
		c0.17,0.14,0.33,0.18,0.61,0c1.98-1.29,4.09-2.35,6.34-3.12c1.71-0.58,3.5-0.91,5.18-1.56c3.62-1.4,7.23-2.84,10.88-4.17
		c5.99-2.17,12.09-3.98,18.26-5.55c2.62-0.66,5.29-1.05,7.86-1.95c2.13-0.74,4.02-1.81,5.25-3.71c0.91-1.39,1.6-2.94,2.1-4.53
		c0.53-1.71,0.18-3.58-1.19-4.6C789.4,293.07,788.32,292.72,787.45,292z"/>
	<path class="st3" d="M778.34,243.49c0.74,2.34,1.32,4.72,1.7,7.14c0.17,1.1,0.27,2.2,0.24,3.31c-0.05,1.83,0.29,3.64,0.27,5.46
		c0.01,0.48,0.11,0.96,0.11,1.44c0.03,1.99-0.2,3.98-0.15,5.98c0.02,0.68-0.07,1.37-0.21,2.03c-0.27,1.3-0.41,2.6-0.52,3.92
		c-0.07,0.84-0.12,1.68-0.27,2.51c-0.07,0.38-0.13,0.95-0.63,0.98c-0.4,0.02-0.57-0.42-0.72-0.78c-0.61-1.48-1.38-2.85-2.51-4.01
		c-1.04-1.06-2.22-1.93-3.41-2.8c-2.36-1.73-5.08-2.67-7.79-3.63c-1.75-0.62-3.59-0.93-5.42-1.28c-1.9-0.36-3.81-0.59-5.73-0.68
		c-1.42-0.06-2.83,0.1-4.24,0.23c-1.44,0.14-2.86,0.4-4.3,0.54c-1.08,0.11-2.18,0.19-3.18-0.13c-2.1-0.66-4.11-1.58-5.78-3.07
		c-0.82-0.73-1.75-1.16-2.81-1.37c-0.28-0.05-0.55-0.03-0.78,0.22c-0.53,0.61-1.09,1.2-1.63,1.82c-0.99,1.13-2.13,2.13-3.11,3.28
		c-0.21,0.24-0.39,0.43-0.45,0.75c0.5-0.14,0.95-0.3,1.41-0.39c1.19-0.23,2.39-0.34,3.57,0.11c0.72,0.27,1.37,0.66,2.02,1.05
		c2.27,1.37,4.66,2.42,7.31,2.83c0.9,0.14,1.82,0.1,2.7,0.28c1.8,0.38,3.62,0.33,5.43,0.42c0.5,0.03,1.04-0.09,1.57-0.09
		c0.34,0,0.77,0.12,0.81,0.38c0.22,1.34,0.14,2.64-0.83,3.73c-0.39,0.44-0.85,0.82-1.22,1.28c-0.7,0.88-1.26,1.86-2.21,2.54
		c-0.77,0.55-1.48,1.19-2.2,1.81c-2.04,1.78-4.25,3.28-6.93,3.89c-2.42,0.55-4.8,1.48-7.37,1.07c-1.19-0.19-2.37-0.39-3.57-0.54
		c-1.09-0.14-2.17-0.36-3.25-0.55c-1.81-0.33-3.62-0.63-5.44-0.92c-1.23-0.2-2.45-0.38-3.68-0.55c-1.63-0.23-3.28-0.09-4.92-0.23
		c-2.46-0.21-3.71-2.39-3.07-4.4c0.81-2.57,2.63-4.32,5.24-5.16c0.22-0.07,0.48-0.02,0.67-0.22c1.27-1.33,2.93-1.93,4.65-2.36
		c1.2-0.3,2.27-0.87,3.51-1.48c-0.28,0-0.38-0.02-0.48,0c-1.59,0.3-3.15,0.7-4.76,0.91c-1.21,0.15-2.43,0.33-3.64,0.42
		c-1.53,0.11-3.01,0.4-4.41,1.03c-1.74,0.77-3.16,2.03-4.77,3.01c-1.62,0.99-2.92,2.58-5.06,2.66c-1.5,0.06-2.93,0.04-4.22-0.83
		c-0.63-0.43-1.14-1.5-0.89-1.98c0.41-0.82,0.18-1.55-0.19-2.27c-0.47-0.91-1.22-1.6-1.89-2.35c-1.17-1.31-2.46-2.5-3.63-3.8
		c-0.88-0.98-1.88-1.86-2.62-2.96c-0.77-1.15-1.82-2.16-1.74-3.7c0-0.04,0-0.1-0.02-0.12c-0.6-0.4-0.64-1.16-1.07-1.66
		c-0.49-1.1-0.98-2.2-1.46-3.3c-0.31-1.17-0.66-2.34-0.81-3.55c-0.06-0.46-0.11-0.91-0.19-1.37c-0.24-1.45-0.25-2.9-0.26-4.36
		c0-0.05-0.05-0.11-0.08-0.16c-0.03-1.14-0.11-2.28,0.07-3.42c0.05-2.02,0.55-3.95,1.18-5.85c0.05-0.14,0.05-0.27,0.08-0.41
		c0.04-0.07,0.08-0.13,0.11-0.2c0.74-1.8,1.01-3.76,1.82-5.54c0.66-1.37,1.46-2.67,2.39-3.87c0.47-0.61,0.98-1.19,1.49-1.76
		c0.66-0.75,1.32-1.5,2-2.23c1.41-1.49,3.17-2.53,4.78-3.77c1.12-0.86,2.24-1.75,3.4-2.55c1.45-1,3.11-1.62,4.71-2.33
		c1.89-0.84,3.82-1.6,5.72-2.39c1.61-0.67,3.28-1.12,5.04-1.18c2.06-0.07,4.11,0.07,6.16,0.16c2.57,0.11,5.07,0.76,7.53,1.56
		c1.94,0.64,3.83,1.36,5.64,2.27c1.53,0.77,2.98,1.72,4.29,2.88c1.25,1.11,2.38,2.34,3.59,3.49c0.16,0.15,0.35,0.27,0.52,0.42
		c0.22,0.2,0.35,0.25,0.68,0.04c0.56-0.34,1.19-0.22,1.75,0.18c0.73,0.52,1.46,1.06,2.24,1.5c1.75,1,3.59,1.8,5.57,2.26
		c2.7,0.63,5.33,1.47,7.93,2.42c1.49,0.54,3.04,0.97,4.46,1.67c3.32,1.63,6.19,3.88,8.76,6.53c0.46,0.48,0.86,1.03,1.47,1.35
		c0,0,0.01,0.01,0.01,0.01c0.16,0.15,0.33,0.3,0.49,0.45l0.01,0.01c0.12,0.2,0.28,0.36,0.48,0.48l0.01,0.01
		c0.15,0.17,0.3,0.34,0.45,0.5l0.01,0.01c0.38,0.51,0.76,1.02,1.24,1.44c0.01,0.1,0.03,0.19,0.1,0.27c1.27,1.65,2.35,3.4,3.08,5.36
		C778.32,243.33,778.33,243.41,778.34,243.49z M778.17,271.61c0.13-0.13,0.17-0.31,0.15-0.5c-0.04-0.51,0.06-1.02,0.15-1.5
		c0.43-2.18,0.38-4.39,0.46-6.59c0.09-2.7-0.29-5.39-0.31-8.08c-0.02-3.03-0.6-5.93-1.26-8.85c-0.76-3.31-2.48-6.06-4.75-8.52
		c-1.08-1.17-2.33-2.16-3.44-3.29c-1.05-1.07-2.08-2.16-3.34-2.99c-1.77-1.18-3.51-2.4-5.56-3.08c-1.48-0.49-2.97-0.95-4.41-1.51
		c-1.2-0.46-2.41-0.9-3.65-1.2c-2.57-0.6-5.07-1.38-7.43-2.57c-0.94-0.48-1.77-1.09-2.61-1.7c-0.21-0.16-0.36-0.18-0.45,0.09
		c-0.47,1.41-1.25,2.65-2.09,3.86c-0.72,1.03-1.13,2.23-1.7,3.33c-0.1,0.19-0.21,0.35-0.4,0.26c-0.14-0.07-0.26-0.26-0.22-0.45
		c0.38-1.59,0.7-3.19,1.44-4.66c0.44-0.87,0.94-1.71,1.21-2.66c-0.74-0.24-1.37-0.7-1.94-1.23c-1.16-1.09-2.23-2.26-3.42-3.32
		c-1.67-1.48-3.58-2.56-5.59-3.46c-2.15-0.96-4.38-1.71-6.67-2.28c-1.97-0.49-3.97-0.78-6-0.8c-0.83-0.01-1.66,0.02-2.49-0.09
		c-0.84-0.11-1.72-0.11-2.56,0.01c-1.62,0.21-3.14,0.77-4.65,1.4c-2.65,1.11-5.29,2.24-7.9,3.44c-1.36,0.62-2.43,1.63-3.6,2.51
		c-1.98,1.49-4.14,2.76-5.85,4.57c-1.18,1.25-2.32,2.56-3.41,3.9c-1.18,1.45-2.18,3.02-2.65,4.85c-0.41,1.6-1.01,3.12-1.5,4.69
		c-0.51,1.62-0.96,3.27-1,4.96c-0.06,3.02-0.08,6.04,0.33,9.05c0.22,1.64,0.55,3.25,1.07,4.82c0.33,0.99,0.68,1.99,0.95,2.99
		c0.15,0.54,0.37,0.78,0.8,1c0.49,0.25,0.85,0.65,1.13,1.14c0.62,1.11,1.46,2.07,2.32,3c1.74,1.86,3.52,3.68,5.2,5.59
		c0.49,0.56,0.98,1.12,1.39,1.75c0.65,1.01,0.5,2.12,0.5,3.22c0,0.27-0.01,0.51,0.25,0.7c0.94,0.69,3.55,0.78,4.54,0.11
		c1.31-0.88,2.66-1.72,3.89-2.69c3.06-2.42,6.54-3.61,10.41-3.73c1.16-0.04,2.29-0.32,3.44-0.46c1.03-0.13,2.01-0.48,3.03-0.62
		c1.94-0.27,3.8-0.73,5.59-1.55c0.46-0.21,0.82-0.34,0.7-0.94c-0.03-0.13,0.06-0.32,0.16-0.44c0.62-0.8,1.33-1.53,2.12-2.18
		c0.8-0.67,1.63-1.31,2.46-1.97c-1.15-0.27-2.24-0.08-3.31,0.19c-2.16,0.53-4.36,0.66-6.56,0.76c-0.31,0.01-0.56-0.09-0.75-0.31
		c-0.19-0.23-0.19-0.41,0.15-0.55c0.77-0.32,1.56-0.58,2.38-0.73c1.41-0.27,2.84-0.41,4.21-0.86c1.18-0.38,2.39-0.54,3.62-0.48
		c0.58,0.03,1.15,0.16,1.73,0.23c1.43,0.17,2.77,0.58,3.86,1.57c1.49,1.36,3.28,2.21,5.12,2.91c1.57,0.6,3.22,0.27,4.83,0.01
		c1.46-0.24,2.93-0.51,4.41-0.54c2.1-0.05,4.21-0.13,6.32,0.2c1.51,0.24,3.01,0.51,4.51,0.82c2.55,0.53,4.96,1.46,7.35,2.48
		C772.54,266.22,775.62,268.5,778.17,271.61z M749.39,271.79c-0.31,0-0.61-0.01-0.91,0c-1.72,0.05-3.42-0.14-5.13-0.36
		c-1.44-0.19-2.88-0.34-4.29-0.74c-2.22-0.63-4.19-1.77-6.12-2.97c-1.16-0.72-2.38-1.22-3.75-0.93c-1.71,0.36-3.32,1.05-4.91,1.77
		c-1.76,0.8-3.41,1.89-5.27,2.4c-1.95,0.54-3.83,1.12-5.48,2.33c-0.17,0.13-0.43,0.15-0.53-0.06c-0.15-0.29-0.29-0.14-0.44-0.06
		c-1.74,0.91-2.93,2.33-3.72,4.1c-0.38,0.86,0.08,1.92,0.91,2.07c0.73,0.14,1.46,0.25,2.21,0.26c1.24,0.03,2.47-0.09,3.71,0.1
		c1.4,0.22,2.83,0.3,4.23,0.52c1.89,0.29,3.76,0.65,5.64,0.96c1.1,0.18,2.21,0.33,3.32,0.49c1.07,0.16,2.13,0.38,3.2,0.48
		c1.11,0.1,2.18-0.24,3.26-0.48c1.51-0.34,3.03-0.61,4.44-1.29c2.82-1.34,5.09-3.42,7.33-5.53c0.72-0.68,1.59-1.38,1.64-2.54
		c0-0.06,0.18-0.09,0.23-0.16C749.06,272.01,749.35,272.05,749.39,271.79z"/>
	<g>
		<path class="st0" d="M770.45,378.61c-3.45,0-6.54-1.5-8.7-4.23l-0.36-0.46c-1.26-1.6-2.45-3.1-3.7-4.49
			c-1.05-1.18-2.25-2.36-3.65-3.61c-2.52-2.24-5.35-4.29-8.41-6.07c-2.61-1.52-5.04-3.16-7.4-4.75c-0.82-0.55-1.63-1.1-2.45-1.64
			c-1.44-0.95-2.85-1.93-4.27-2.92c-1.88-1.31-3.66-2.54-5.48-3.69c-0.75-0.47-1.51-0.91-2.28-1.35c-1.29-0.74-2.75-1.58-4.19-2.58
			c-1.21-0.85-2.42-1.71-3.62-2.57c-1.33-0.95-2.66-1.9-4-2.83c-3.43-2.38-7.04-4.72-10.53-6.99l-1.91-1.24
			c-1.7-1.11-3.39-2.25-5.07-3.39c-1.43-0.97-2.86-1.94-4.31-2.89c-1.23-0.81-2.45-1.62-3.67-2.43c-3.33-2.22-6.48-4.31-9.74-6.26
			c-0.9-0.54-1.81-1.07-2.72-1.6c-2.11-1.23-4.29-2.5-6.45-3.9c-0.2-0.13-0.4-0.26-0.6-0.4c-0.23-0.16-0.54-0.36-0.7-0.45
			c-0.78-0.27-1.54-0.56-2.32-0.86l-0.9-0.35c-0.62-0.24-1.2-0.55-1.72-0.92c-0.11-0.01-0.75-0.06-0.75-0.06
			c-2.15-0.19-5.1-0.44-8.07-2.14c-1.47-0.84-5.94-3.39-7.56-9.04c-1.33-4.66,0.37-9.96,4.13-12.88l0.1-0.08
			c1.06-0.82,2.75-2.14,5.2-2.78c0.1-0.22,0.2-0.45,0.29-0.68c0.28-0.64,0.55-1.27,0.84-1.9c2.04-4.44,6.11-7.03,11.15-7.11l0.48,0
			c2.08,0,5.21,0.23,8.23,2.24c1.86,1.24,3.61,2.78,5.23,4.6l0.2,0.22c0.73,0.81,1.63,1.83,2.45,3.14c1.02,1.63,1.71,3.26,2.27,4.66
			c0.21,0.51,0.5,0.88,1.02,1.28c2.36,1.78,5.16,3.85,8.04,5.63c2.93,1.81,6.39,3.99,9.79,6.39c2.45,1.73,5.02,3.45,7.51,5.11
			c1.08,0.72,2.16,1.44,3.23,2.16l0.63,0.42c1.95,1.32,3.79,2.56,5.65,3.59l1.07,0.59c2.37,1.32,4.61,2.56,6.91,3.73
			c3.64,1.86,6.76,3.92,9.54,6.27c3.18,2.69,6.83,5.3,11.82,8.44c1.22,0.77,2.51,1.5,3.86,2.28c1.18,0.67,2.35,1.35,3.51,2.05
			c2.28,1.39,4.57,2.76,6.87,4.12c2.7,1.6,5.9,3.41,9.24,4.78c0.43,0.18,0.85,0.39,1.27,0.6l0.14,0.07c0.49,0.2,0.78,0.26,0.93,0.27
			c0.38,0.04,0.76,0.07,1.14,0.09c1.26,0.1,2.69,0.2,4.27,0.55c3.34,0.73,6.07,2.98,7.48,6.17c0.1,0.22,0.2,0.45,0.31,0.68
			c0.61,1.31,1.44,3.11,1.8,5.34c0.47,2.92-0.18,5.75-1.88,8.18c-1.49,2.14-3.34,3.2-4.45,3.83c-0.12,0.07-0.25,0.14-0.37,0.22
			c-0.04,0.03-0.07,0.05-0.1,0.08c-0.68,1-1.23,1.84-1.49,2.54c-1.81,4.9-5.72,8.2-10.72,9.04
			C771.83,378.55,771.13,378.61,770.45,378.61z"/>
		<path d="M667.15,276.55c1.44,0,2.82,0.16,4.07,0.99c1.41,0.94,2.65,2.07,3.77,3.33c0.67,0.76,1.36,1.5,1.9,2.36
			c0.69,1.09,1.19,2.28,1.67,3.48c0.73,1.82,1.89,3.28,3.46,4.47c2.8,2.11,5.63,4.17,8.61,6.02c3.18,1.97,6.35,3.98,9.4,6.14
			c3.58,2.53,7.24,4.92,10.87,7.37c2.24,1.51,4.47,3.05,6.84,4.36c2.72,1.5,5.42,3.02,8.19,4.44c2.9,1.49,5.63,3.22,8.11,5.32
			c3.98,3.37,8.27,6.29,12.68,9.07c2.45,1.54,5,2.89,7.47,4.39c2.31,1.41,4.63,2.8,6.96,4.17c3.3,1.95,6.65,3.8,10.21,5.26
			c0.45,0.18,0.86,0.45,1.31,0.63c1.01,0.42,2.05,0.73,3.14,0.84c1.52,0.15,3.05,0.18,4.54,0.51c1.06,0.23,1.8,0.92,2.22,1.87
			c0.6,1.36,1.32,2.67,1.56,4.17c0.16,0.99-0.02,1.84-0.62,2.71c-0.81,1.17-2.14,1.54-3.18,2.34c-0.56,0.43-1.11,0.85-1.52,1.44
			c-0.99,1.45-1.98,2.89-2.6,4.57c-0.84,2.28-2.51,3.84-4.93,4.25c-0.28,0.05-0.55,0.07-0.83,0.07c-1.04,0-2.02-0.37-2.82-1.38
			c-1.42-1.79-2.82-3.59-4.35-5.3c-1.33-1.49-2.76-2.89-4.25-4.21c-2.97-2.65-6.19-4.95-9.63-6.95c-3.26-1.9-6.34-4.09-9.49-6.17
			c-3.32-2.2-6.51-4.57-9.88-6.7c-2.03-1.29-4.2-2.36-6.18-3.74c-2.56-1.79-5.07-3.64-7.64-5.42c-4.15-2.88-8.4-5.61-12.63-8.36
			c-3.14-2.05-6.21-4.2-9.35-6.26c-4.54-2.98-9.01-6.08-13.69-8.87c-2.98-1.78-6.01-3.46-8.93-5.35c-0.92-0.6-1.79-1.26-2.85-1.62
			c-1.03-0.35-2.03-0.76-3.09-1.16c1.14-0.15,2.27-0.17,3.4-0.17c0.52,0,1.03,0,1.55,0c0.06,0,0.12,0,0.19,0c0.01,0,0.02,0,0.03,0
			c0.07,0,0.14,0,0.21,0c0.04,0,0.08,0,0.12,0c0.58-0.01,1.43-0.45,1.43-0.74c0-0.23-0.91-0.93-1.32-0.97
			c-0.67-0.07-1.34-0.09-2-0.09c-1.21,0-2.42,0.09-3.63,0.18c-1.17,0.09-2.33,0.41-3.5,0.41c-0.17,0-0.35-0.01-0.52-0.02
			c-1.86-0.17-3.77-0.27-5.44-1.22c-1.86-1.06-3.44-2.4-4.06-4.59c-0.48-1.68,0.13-3.82,1.52-4.89c0.88-0.68,1.75-1.39,2.9-1.59
			c0.08-0.01,0.16-0.06,0.23-0.06c0.05,0,0.09,0.02,0.13,0.09c0.06,0.1,0.02,0.22-0.09,0.32c-0.19,0.17-0.22,0.38-0.06,0.6
			c0.12,0.16,0.25,0.21,0.42,0.21c0.07,0,0.14-0.01,0.22-0.02c1.2-0.19,1.68-1.18,2.2-2.05c1.07-1.82,1.81-3.8,2.69-5.71
			c0.89-1.93,2.41-2.72,4.46-2.75C666.91,276.55,667.03,276.55,667.15,276.55 M667.15,261.55c-0.2,0-0.4,0-0.6,0.01
			c-7.86,0.13-14.49,4.35-17.77,11.32c-1.94,0.96-3.34,2.05-4.2,2.72l-0.1,0.08c-6.22,4.82-8.93,13.21-6.75,20.86
			c1.63,5.7,5.34,10.24,11.05,13.5c3.9,2.23,7.65,2.77,10.2,3.02c0.45,0.23,0.92,0.43,1.4,0.61c0.29,0.11,0.57,0.22,0.85,0.33
			c0.52,0.2,1.08,0.42,1.68,0.64c0.19,0.12,0.37,0.25,0.56,0.37c2.31,1.5,4.57,2.81,6.75,4.09c0.89,0.52,1.77,1.03,2.65,1.56
			c3.1,1.85,6.17,3.9,9.42,6.06c1.23,0.82,2.47,1.64,3.71,2.46c1.38,0.9,2.75,1.83,4.2,2.82c1.68,1.14,3.41,2.32,5.2,3.48l1.95,1.27
			c3.59,2.33,6.98,4.53,10.3,6.84c1.28,0.89,2.56,1.8,3.91,2.77c1.23,0.88,2.45,1.76,3.69,2.62c1.71,1.2,3.33,2.13,4.76,2.95
			c0.74,0.42,1.43,0.82,1.99,1.18c1.68,1.06,3.39,2.25,5.21,3.51c1.42,0.98,2.88,2,4.41,3.01c0.8,0.53,1.6,1.07,2.4,1.61
			c2.46,1.66,5,3.37,7.82,5.01c2.63,1.54,5.06,3.28,7.2,5.19c1.19,1.06,2.19,2.04,3.05,3.01c1.09,1.22,2.21,2.64,3.4,4.14l0.37,0.47
			c3.56,4.5,8.87,7.07,14.58,7.07c1.1,0,2.22-0.09,3.32-0.28c7.48-1.26,13.57-6.29,16.37-13.48c1.57-0.98,3.77-2.62,5.67-5.34
			c2.82-4.05,3.9-8.77,3.13-13.64c-0.52-3.25-1.69-5.79-2.4-7.31c-0.09-0.19-0.18-0.38-0.26-0.57c-2.39-5.4-7.03-9.21-12.73-10.46
			c-2.09-0.46-3.95-0.6-5.3-0.7c-0.03,0-0.06,0-0.1-0.01c-0.32-0.15-0.69-0.32-1.11-0.49c-2.89-1.19-5.8-2.84-8.26-4.29
			c-2.42-1.43-4.65-2.77-6.79-4.07c-1.27-0.77-2.5-1.48-3.68-2.15c-1.29-0.74-2.51-1.43-3.6-2.12c-4.69-2.95-8.08-5.37-10.97-7.82
			c-3.22-2.73-6.81-5.09-10.96-7.22c-2.18-1.12-4.36-2.33-6.67-3.61l-1.1-0.61c-1.58-0.87-3.29-2.03-5.1-3.25l-0.62-0.42
			c-1.08-0.73-2.17-1.46-3.26-2.18c-2.56-1.71-4.98-3.32-7.34-4.99c-3.55-2.51-7.13-4.77-10.17-6.65c-2.26-1.4-4.54-3.04-6.55-4.55
			c-0.63-1.47-1.37-3.02-2.37-4.62c-1.15-1.84-2.39-3.23-3.21-4.15l-0.18-0.2c-2.04-2.3-4.29-4.27-6.68-5.87
			C674.27,261.55,668.91,261.55,667.15,261.55L667.15,261.55z"/>
	</g>
	<g>
		<path class="st0" d="M673.9,369.43c-5.34,0-8.19-2.75-9.64-5.05c-0.65-1.03-1.53-2.13-2.79-3.47c-0.64-0.69-1.14-1.47-1.48-2.3
			c-1.33-0.14-2.72-0.36-4.16-0.79c-0.29-0.07-0.58-0.15-0.86-0.26c-4.03-1.44-6-4.24-6.01-8.54c-0.01-4.25,0.8-7.89,2.47-11.13
			c1.72-3.33,4.8-5.47,8.67-6.02c3.27-0.47,6.23-1.19,9.05-2.21c1.33-0.48,2.66-0.98,3.99-1.48c3.31-1.24,6.74-2.52,10.31-3.59
			c2.83-0.84,5.75-1.84,8.68-2.96c0.65-0.25,1.47-0.7,2.32-1.17l0.19-0.1c0.79-0.43,1.54-0.78,2.2-1.09
			c0.67-0.31,1.3-0.61,1.68-0.86c1.27-0.83,2.76-1.27,4.27-1.27c1.06,0,2.67,0.23,4.34,1.3c4.64,3.01,9.15,5.96,13.61,9.1
			c0.2,0.14,0.39,0.29,0.56,0.43c2.04,1.61,3.07,4.15,2.76,6.73c-0.3,2.58-1.96,4.8-4.32,5.9c-4.79,2.23-8.4,4.02-11.73,5.81
			c-1.59,0.86-3.14,1.55-4.64,2.23c-0.62,0.28-1.25,0.56-1.87,0.85c-2.3,1.08-4.5,2.4-6.54,3.92c-0.3,0.23-0.9,1.09-1.38,1.78
			l-0.38,0.55c-0.54,0.77-1.11,1.51-1.67,2.26c-0.78,1.03-1.52,2-2.05,2.9c-0.17,0.29-0.35,0.58-0.53,0.87
			c-0.2,0.32-0.4,0.63-0.57,0.96c-0.9,1.71-2.7,3.99-6.14,5.12c-2.34,0.77-5.1,1.59-8.34,1.59
			C673.92,369.43,673.9,369.43,673.9,369.43z"/>
		<path d="M702.82,324.62c0.1,0,0.18,0.04,0.27,0.1c4.49,2.91,8.97,5.84,13.35,8.93c0.06,0.05,0.12,0.1,0.17,0.13
			c-4.09,1.9-8.15,3.87-12.13,6.02c-1.99,1.07-4.08,1.93-6.12,2.89c-2.77,1.3-5.38,2.87-7.84,4.7c-1.46,1.09-2.4,2.58-3.42,4.03
			c-1.33,1.89-2.86,3.65-4.04,5.64c-0.43,0.72-0.9,1.42-1.29,2.15c-0.41,0.78-1.02,1.22-1.85,1.49c-1.96,0.64-3.92,1.22-6.01,1.22
			c0,0-0.01,0-0.01,0c-1.36,0-2.47-0.24-3.29-1.55c-1.02-1.63-2.27-3.12-3.66-4.61c0.62,0.15,1,0.5,1.43,0.76
			c0.6,0.37,1.18,0.77,1.73,1.2c0.24,0.19,0.48,0.26,0.71,0.26c0.29,0,0.58-0.11,0.86-0.23c0.44-0.18,0.46-0.54,0.23-0.91
			c-0.16-0.27-0.36-0.5-0.64-0.68c-2.02-1.28-3.97-2.66-6.27-3.42c-0.34-0.11-0.62-0.31-0.81-0.59c-0.47-0.68-1.16-0.86-1.92-0.91
			c-1.54-0.11-3.08-0.23-4.56-0.73c-0.06-0.02-0.12-0.01-0.18-0.03c-1.06-0.38-1.06-0.39-1.07-1.52c-0.01-2.67,0.38-5.24,1.63-7.66
			c0.67-1.3,1.76-1.86,3.07-2.04c3.6-0.52,7.11-1.34,10.54-2.58c4.62-1.67,9.18-3.53,13.9-4.93c3.12-0.93,6.19-1.99,9.22-3.15
			c1.19-0.46,2.31-1.08,3.43-1.69c1.43-0.78,2.99-1.34,4.36-2.23C702.69,324.64,702.75,324.62,702.82,324.62 M702.82,309.62
			c-2.92,0-5.77,0.83-8.25,2.41c-0.18,0.09-0.59,0.28-0.89,0.42c-0.73,0.34-1.63,0.76-2.62,1.31l-0.2,0.11
			c-0.5,0.27-1.17,0.64-1.42,0.75c-2.74,1.05-5.47,1.98-8.11,2.77c-3.82,1.14-7.37,2.47-10.8,3.75c-1.3,0.49-2.6,0.98-3.91,1.45
			c-2.34,0.85-4.82,1.45-7.57,1.84c-6.24,0.89-11.44,4.54-14.27,10.01c-2.24,4.34-3.33,9.12-3.31,14.6
			c0.02,7.41,4.04,13.09,11.01,15.59c0.45,0.16,0.91,0.3,1.38,0.42c0.56,0.16,1.11,0.31,1.64,0.43c0.16,0.19,0.33,0.38,0.51,0.57
			c0.9,0.96,1.53,1.73,1.91,2.34c2.01,3.2,6.76,8.56,15.99,8.56c4.17,0,7.61-0.95,10.71-1.97c4.53-1.49,8.23-4.58,10.42-8.72
			c0.1-0.18,0.21-0.35,0.32-0.53c0.21-0.33,0.41-0.66,0.61-1c0.31-0.53,0.92-1.33,1.57-2.18c0.56-0.74,1.19-1.57,1.84-2.49
			l0.41-0.58c0.11-0.16,0.25-0.36,0.37-0.52c1.45-1.02,2.99-1.92,4.59-2.67c0.58-0.27,1.17-0.54,1.76-0.8
			c1.54-0.69,3.29-1.48,5.12-2.47c3.19-1.72,6.68-3.45,11.33-5.61c4.71-2.19,7.96-6.67,8.57-11.84c0.61-5.11-1.45-10.17-5.44-13.41
			c-0.22-0.18-0.55-0.44-0.97-0.74c-4.57-3.23-9.16-6.22-13.84-9.26C708.71,310.49,705.8,309.62,702.82,309.62L702.82,309.62z"/>
	</g>
	<g>
		<path class="st0" d="M735.28,330.54c-1.3,0-3.23-0.32-5.08-1.86c-2.76-2.29-6.02-4.09-10.06-6.09c-2.73-1.32-4.4-4.06-4.32-7.13
			c0.09-3.51,2.6-6.48,6.04-7.16c0.94-0.19,2.06-0.64,3.36-1.17c0.96-0.39,2.04-0.83,3.2-1.21c2.09-0.69,4.2-1.65,6.43-2.66
			c0.81-0.37,1.62-0.73,2.43-1.09c2.34-1.03,4.7-1.98,6.98-2.9l1.85-0.75c0.83-0.34,1.79-0.87,2.8-1.44c0.66-0.37,1.32-0.74,2-1.09
			c1.34-0.7,2.67-1.41,4-2.13l1.65-0.89c0.68-0.37,1.44-0.85,2.24-1.37c0.78-0.5,1.55-1,2.35-1.46c1.41-0.82,2.8-1.78,4.47-2.96
			c0.01,0,0.01-0.01,0.01-0.01c0.36-1.5,0.89-3.38,2.05-5.24c1.35-2.18,3.33-3.85,5.73-4.84c1.38-0.57,3.49-1.32,6.03-1.32
			c0.3,0,0.59,0.01,0.9,0.03c1.98,0.14,3.89,0.7,5.68,1.68c2.68,1.47,4.45,4.21,4.78,7.39c0.05,0.16,0.09,0.32,0.14,0.48
			c0.4,0.21,0.79,0.46,1.16,0.75c0.13,0.08,0.26,0.14,0.39,0.21c0.61,0.32,1.44,0.77,2.33,1.44c3.85,2.9,5.35,7.93,3.83,12.82
			c-0.73,2.33-1.73,4.48-2.98,6.4c-2,3.07-4.96,5.26-9.06,6.69c-2.11,0.74-4.17,1.18-5.99,1.57c-0.83,0.18-1.67,0.36-2.49,0.57
			c-6.39,1.62-12.13,3.36-17.54,5.33c-2.72,0.99-5.51,2.07-8.2,3.12l-2.53,0.99c-1.32,0.51-2.57,0.85-3.67,1.15
			c-0.66,0.18-1.29,0.35-1.81,0.52c-1.57,0.53-3.13,1.3-4.65,2.3C738.36,330.08,736.83,330.54,735.28,330.54z"/>
		<path d="M779.44,283.28c0.12,0,0.25,0,0.38,0.01c0.93,0.06,1.8,0.34,2.6,0.78c0.62,0.34,0.88,1,0.93,1.72
			c0.02,0.26,0.04,0.51,0.12,0.76c0.51,1.66,0.93,3.35,1.5,4.98c0.37,1.08,1.07,2.01,1.84,2.86c0.18,0.2,0.46,0.3,0.75,0.3
			c0.39,0,0.79-0.17,0.98-0.48c0.29-0.48-0.09-0.8-0.34-1.1c-0.29-0.33-0.56-0.67-0.73-1.11c0.87,0.72,1.95,1.07,2.84,1.74
			c1.36,1.03,1.72,2.89,1.19,4.6c-0.5,1.59-1.19,3.14-2.1,4.53c-1.24,1.9-3.13,2.96-5.25,3.71c-2.56,0.9-5.24,1.29-7.86,1.95
			c-6.17,1.56-12.27,3.37-18.26,5.55c-3.65,1.33-7.26,2.76-10.88,4.17c-1.68,0.65-3.47,0.98-5.18,1.56
			c-2.24,0.76-4.35,1.82-6.34,3.12c-0.13,0.09-0.23,0.12-0.33,0.12c-0.1,0-0.19-0.05-0.28-0.12c-3.5-2.91-7.48-5.04-11.53-7.04
			c-0.08-0.04-0.14-0.06-0.14-0.22c2.6-0.51,4.96-1.79,7.46-2.62c3.29-1.09,6.37-2.62,9.53-4.01c2.85-1.25,5.75-2.39,8.63-3.56
			c1.9-0.77,3.63-1.89,5.44-2.83c1.92-1,3.82-2.04,5.72-3.06c1.66-0.89,3.18-2.01,4.81-2.95c1.73-1.01,3.37-2.15,5.01-3.3
			c1.55-1.09,2.57-2.58,3.01-4.46c0.24-1.04,0.54-2.05,1.11-2.98c0.54-0.88,1.29-1.47,2.22-1.85
			C777.29,283.61,778.32,283.28,779.44,283.28 M779.44,268.28c-3.87,0-6.92,1.08-8.89,1.89c-3.87,1.6-7.07,4.3-9.25,7.83
			c-0.99,1.6-1.66,3.14-2.14,4.54c-0.63,0.42-1.22,0.8-1.78,1.13c-0.99,0.58-1.86,1.14-2.63,1.63c-0.67,0.43-1.3,0.84-1.73,1.07
			l-1.65,0.89c-1.36,0.73-2.64,1.42-3.92,2.09c-0.81,0.42-1.55,0.84-2.21,1.21c-0.73,0.41-1.55,0.87-1.94,1.03l-1.82,0.73
			c-2.34,0.94-4.76,1.92-7.21,3c-0.84,0.37-1.67,0.75-2.5,1.12c-2.05,0.93-3.98,1.81-5.7,2.38c-1.39,0.46-2.6,0.95-3.66,1.38
			c-0.71,0.29-1.69,0.68-2.03,0.77c-6.9,1.36-11.89,7.33-12.05,14.36c-0.14,6.01,3.12,11.38,8.52,14.03
			c3.54,1.75,6.36,3.29,8.56,5.12c2.78,2.31,6.29,3.58,9.87,3.58c3.01,0,5.95-0.88,8.52-2.56c1-0.65,1.99-1.15,2.96-1.48
			c0.29-0.1,0.83-0.24,1.34-0.38c1.22-0.33,2.74-0.74,4.44-1.4c0.85-0.33,1.69-0.66,2.54-0.99c2.78-1.08,5.4-2.11,8.04-3.06
			c5.17-1.88,10.67-3.55,16.83-5.11c0.65-0.17,1.42-0.33,2.23-0.51c1.93-0.42,4.34-0.93,6.88-1.82c5.64-1.97,9.97-5.22,12.87-9.68
			c1.63-2.5,2.93-5.28,3.86-8.27c2.44-7.83-0.17-16.28-6.48-21.04c-0.65-0.49-1.27-0.89-1.81-1.22c-1.31-4.1-4.09-7.55-7.9-9.63
			c-2.75-1.5-5.69-2.37-8.76-2.58C780.38,268.29,779.9,268.28,779.44,268.28L779.44,268.28z"/>
	</g>
	<g>
		<path class="st0" d="M697.11,281.5c-1.89,0-4.62-0.35-6.9-2.04c-1.23-0.91-3.29-2.99-3.29-6.71c0-0.01,0-0.01,0-0.02
			c-0.01-0.01-0.02-0.02-0.02-0.03c-1.13-1.29-2.33-2.55-3.59-3.88c-0.48-0.51-0.96-1.02-1.44-1.53c-0.89-0.95-1.89-2.08-2.8-3.47
			c-1.58-1.19-2.68-2.84-3.22-4.84c-0.17-0.61-0.4-1.31-0.65-2.05l-0.18-0.54c-0.63-1.88-1.08-3.9-1.39-6.18
			c-0.49-3.58-0.46-7.01-0.4-10.22c0.06-2.63,0.68-4.95,1.34-7.05c0.2-0.63,0.41-1.25,0.62-1.88c0.3-0.87,0.58-1.69,0.76-2.41
			c0.68-2.68,1.99-5.13,4.1-7.73c1.24-1.52,2.5-2.97,3.77-4.31c1.75-1.85,3.62-3.17,5.27-4.33c0.51-0.36,1.03-0.72,1.53-1.1
			c0.24-0.18,0.47-0.36,0.7-0.55c1.03-0.82,2.43-1.94,4.28-2.78c2.89-1.33,5.73-2.53,8.13-3.54c1.81-0.76,4.01-1.58,6.56-1.92
			c0.77-0.1,1.54-0.15,2.31-0.15c0.75,0,1.5,0.05,2.23,0.15c0.16,0.02,0.61,0.02,0.8,0.02l0.75,0c2.53,0.02,5.06,0.35,7.74,1.01
			c2.74,0.67,5.4,1.59,7.92,2.71c3,1.34,5.46,2.87,7.52,4.7c0.85,0.76,1.62,1.53,2.3,2.21c0.19,0.19,0.38,0.38,0.57,0.57
			c1.14,0.08,2.66,0.44,4.19,1.57c0.55,0.41,1.13,0.84,1.53,1.04c1.53,0.77,3.36,1.4,5.75,1.96c1.69,0.4,3.23,0.95,4.64,1.5
			c0.88,0.34,1.85,0.66,2.88,0.99l1.22,0.4c2.82,0.94,5.08,2.45,6.89,3.65l0.44,0.29c1.89,1.25,3.31,2.72,4.46,3.9l0.11,0.11
			c0.4,0.41,0.83,0.79,1.25,1.18c0.71,0.65,1.52,1.39,2.33,2.27c3.41,3.7,5.55,7.61,6.54,11.94c0.69,3.01,1.43,6.54,1.45,10.47
			c0.01,0.95,0.07,1.98,0.15,3.08c0.11,1.6,0.22,3.41,0.16,5.31c-0.01,0.41-0.02,0.83-0.03,1.24c-0.04,1.95-0.09,4.17-0.56,6.55
			l-0.01,0.03c0.03,2.17-0.81,4.28-2.36,5.82c-1.41,1.41-3.32,2.2-5.3,2.2c-0.12,0-0.25,0-0.38-0.01c-2.12-0.11-4.09-1.1-5.43-2.74
			c-1.74-2.12-3.84-3.7-6.44-4.81c-1.89-0.81-3.92-1.62-5.91-2.03c-1.49-0.31-2.85-0.56-4.15-0.76c-0.7-0.11-1.49-0.16-2.59-0.16
			c-0.66,0-1.32,0.02-1.98,0.03l-0.42,0.01c-0.79,0.02-1.81,0.19-2.89,0.37l-0.73,0.12c-1.04,0.17-2.32,0.39-3.8,0.39
			c-1.65,0-3.22-0.28-4.66-0.83c-1.45-0.55-3.18-1.29-4.94-2.42c-0.17,0.14-0.6,0.49-0.65,0.53c-0.7,1.75-2.08,3.39-4.44,4.47
			c-2.36,1.08-4.88,1.79-7.75,2.19c-0.12,0.02-0.46,0.1-0.71,0.16c-0.64,0.16-1.44,0.35-2.39,0.47c-0.3,0.04-0.6,0.09-0.91,0.14
			c-0.88,0.15-1.98,0.33-3.24,0.37c-2.35,0.08-4.26,0.75-6.01,2.13c-1.17,0.93-2.36,1.71-3.41,2.4c-0.31,0.21-0.63,0.41-0.94,0.62
			C701.27,281.2,698.81,281.5,697.11,281.5z M713.66,232.15c-0.09,0.12-0.28,0.43-0.56,1.1c-0.21,0.5-0.37,1.4-0.54,2.35l-0.1,0.55
			c-0.06,0.32-0.05,0.45-0.05,0.46c0.2,1.38,0.55,2.89,1.02,4.4c0.14,0.44,0.38,0.99,1.16,1.73c0.04,0.04,0.08,0.07,0.12,0.11
			c0.48-0.22,0.98-0.41,1.48-0.57c2.18-0.7,3.96-1.3,5.32-2.2c1.08-0.72,2.2-1.46,2.5-1.96c0.47-0.77,0.52-1.05,0.52-1.06
			c-0.01-0.31-0.02-0.72-0.06-1.04l-0.07-0.6c-0.06-0.56-0.13-1.15-0.2-1.45c-0.14-0.57-0.41-1.19-1.42-1.93
			c-0.94-0.69-1.88-1.05-2.97-1.13c-0.25-0.02-0.49-0.03-0.74-0.03c-0.98,0-1.99,0.15-3.02,0.43
			C715.3,231.51,714.37,231.79,713.66,232.15z"/>
		<path d="M712.61,209.76c0.42,0,0.83,0.03,1.24,0.08c0.6,0.08,1.2,0.09,1.8,0.09c0.12,0,0.23,0,0.35,0c0.11,0,0.22,0,0.34,0
			c2.03,0.02,4.03,0.31,6,0.8c2.29,0.56,4.52,1.32,6.67,2.28c2.01,0.9,3.92,1.97,5.59,3.46c1.19,1.06,2.26,2.24,3.42,3.32
			c0.57,0.54,1.2,0.99,1.94,1.23c-0.27,0.95-0.77,1.79-1.21,2.66c-0.74,1.47-1.06,3.07-1.44,4.66c-0.04,0.19,0.08,0.38,0.22,0.45
			c0.04,0.02,0.07,0.03,0.1,0.03c0.13,0,0.21-0.13,0.29-0.28c0.57-1.11,0.98-2.3,1.7-3.33c0.84-1.21,1.63-2.45,2.09-3.86
			c0.05-0.15,0.12-0.21,0.2-0.21c0.07,0,0.15,0.04,0.25,0.12c0.84,0.62,1.67,1.23,2.61,1.7c2.36,1.2,4.86,1.97,7.43,2.57
			c1.25,0.29,2.45,0.73,3.65,1.2c1.45,0.56,2.94,1.02,4.41,1.51c2.04,0.68,3.78,1.91,5.56,3.08c1.26,0.84,2.3,1.92,3.34,2.99
			c1.11,1.14,2.36,2.12,3.44,3.29c2.27,2.46,3.99,5.21,4.75,8.52c0.67,2.92,1.24,5.82,1.26,8.85c0.02,2.69,0.4,5.38,0.31,8.08
			c-0.07,2.2-0.03,4.41-0.46,6.59c-0.09,0.48-0.19,0.99-0.15,1.5c0.02,0.19-0.02,0.36-0.15,0.5c-2.54-3.11-5.63-5.39-9.29-6.96
			c-2.39-1.02-4.8-1.95-7.35-2.48c-1.5-0.31-3-0.59-4.51-0.82c-1.25-0.19-2.5-0.25-3.74-0.25c-0.86,0-1.72,0.02-2.58,0.04
			c-1.48,0.03-2.95,0.3-4.41,0.54c-0.94,0.15-1.89,0.33-2.83,0.33c-0.67,0-1.34-0.09-1.99-0.34c-1.84-0.7-3.63-1.56-5.12-2.91
			c-1.08-0.98-2.43-1.4-3.86-1.57c-0.58-0.07-1.15-0.2-1.73-0.23c-0.18-0.01-0.35-0.01-0.53-0.01c-1.05,0-2.08,0.16-3.09,0.49
			c-1.37,0.45-2.8,0.59-4.21,0.86c-0.82,0.15-1.61,0.41-2.38,0.73c-0.34,0.14-0.33,0.32-0.15,0.55c0.18,0.22,0.41,0.32,0.69,0.32
			c0.02,0,0.04,0,0.05,0c2.21-0.1,4.4-0.23,6.56-0.76c0.71-0.17,1.42-0.32,2.15-0.32c0.38,0,0.77,0.04,1.16,0.13
			c-0.83,0.66-1.65,1.3-2.46,1.97c-0.78,0.65-1.49,1.38-2.12,2.18c-0.09,0.12-0.18,0.31-0.16,0.44c0.12,0.6-0.24,0.73-0.7,0.94
			c-1.79,0.82-3.65,1.28-5.59,1.55c-1.02,0.14-2,0.49-3.03,0.62c-1.15,0.15-2.28,0.42-3.44,0.46c-3.88,0.12-7.35,1.32-10.41,3.73
			c-1.24,0.98-2.58,1.81-3.89,2.69c-0.46,0.31-1.27,0.46-2.1,0.46c-0.96,0-1.94-0.2-2.44-0.57c-0.26-0.19-0.25-0.43-0.25-0.7
			c0-1.1,0.15-2.22-0.5-3.22c-0.41-0.63-0.9-1.2-1.39-1.75c-1.68-1.91-3.46-3.74-5.2-5.59c-0.87-0.92-1.7-1.89-2.32-3
			c-0.28-0.49-0.63-0.89-1.13-1.14c-0.43-0.22-0.65-0.47-0.8-1c-0.27-1-0.62-2-0.95-2.99c-0.52-1.57-0.85-3.18-1.07-4.82
			c-0.41-3.01-0.39-6.03-0.33-9.05c0.04-1.69,0.49-3.34,1-4.96c0.49-1.57,1.1-3.09,1.5-4.69c0.47-1.83,1.47-3.4,2.65-4.85
			c1.09-1.34,2.22-2.64,3.41-3.9c1.71-1.82,3.87-3.09,5.85-4.57c1.17-0.88,2.24-1.89,3.6-2.51c2.61-1.2,5.25-2.33,7.9-3.44
			c1.51-0.63,3.03-1.19,4.65-1.4C711.72,209.79,712.16,209.76,712.61,209.76 M707.53,263.72c0.1,0,0.21-0.01,0.32-0.03
			c0.72-0.13,1.47-0.21,2.13-0.57c1.58-0.86,3.22-1.44,5.04-1.54c0.43-0.02,0.96-0.01,1.39-0.46c-1.04-0.38-2.06-0.69-3.08-0.69
			c-0.69,0-1.38,0.14-2.08,0.48c-1.05,0.51-2.06,1.11-3.26,1.22c-0.08,0.01-0.15,0.01-0.21,0.01c-0.24,0-0.44-0.07-0.63-0.32
			c-1.03-1.4-1.51-3-1.8-4.68c-0.03-0.18,0.02-0.31,0.17-0.42c0.58-0.38,1.12-0.83,1.76-1.12c1.07-0.48,2.13-0.96,3.18-1.47
			c1.92-0.94,3.89-1.79,5.5-3.25c0.74-0.67,1.57-1.17,2.52-1.48c2.49-0.8,4.96-1.63,7.18-3.09c1.82-1.21,3.61-2.39,4.78-4.33
			c0.95-1.57,1.63-3.18,1.6-5.04c-0.01-0.61-0.04-1.21-0.11-1.81c-0.12-1.01-0.2-2.03-0.45-3.02c-0.65-2.56-2.1-4.55-4.24-6.13
			c-2.06-1.52-4.34-2.38-6.86-2.57c-0.43-0.03-0.87-0.05-1.3-0.05c-1.7,0-3.38,0.25-5.03,0.7c-1.41,0.39-2.82,0.86-4.1,1.56
			c-1.88,1.03-2.95,2.79-3.75,4.72c-0.6,1.43-0.82,2.95-1.1,4.45c-0.17,0.92-0.24,1.87-0.11,2.79c0.27,1.91,0.71,3.79,1.29,5.65
			c0.6,1.94,1.68,3.53,3.13,4.92c1.11,1.06,2.4,1.84,3.81,2.61c-1.68,0.82-3.29,1.63-4.92,2.4c-1.37,0.65-2.77,1.26-3.92,2.29
			c-0.32,0.29-0.52,0.63-0.52,1.1c0,2.28,0.76,4.31,2.04,6.16C706.29,263.28,706.81,263.72,707.53,263.72 M748.29,231.02
			c0.14,0,0.28-0.05,0.38-0.2c0.45-0.62,0.78-1.25,0.53-2.08c-0.27-0.89-1.01-1.27-1.66-1.74c-0.78-0.57-1.59-1.14-2.63-1.14
			c0,0,0,0-0.01,0c-0.09,0-0.18-0.01-0.27-0.01c-0.05,0-0.1,0-0.16,0.01c-0.9,0.1-1.44,0.77-1.15,1.52c0.2,0.51,0.48,0.99,0.86,1.42
			c1.01,1.12,2.35,1.64,3.71,2.14C748.03,230.98,748.16,231.02,748.29,231.02 M712.61,194.76c-1.1,0-2.2,0.07-3.29,0.22
			c-3.45,0.46-6.34,1.54-8.48,2.44c-2.46,1.03-5.37,2.27-8.35,3.63c-2.68,1.23-4.57,2.74-5.83,3.73c-0.18,0.14-0.36,0.29-0.54,0.42
			c-0.37,0.28-0.84,0.61-1.33,0.95c-1.75,1.23-4.14,2.91-6.41,5.32c-1.39,1.47-2.78,3.06-4.13,4.72c-2.79,3.43-4.6,6.9-5.55,10.61
			c-0.11,0.43-0.34,1.11-0.59,1.84c-0.23,0.68-0.47,1.37-0.69,2.06c-0.79,2.51-1.61,5.56-1.68,9.14c-0.07,3.35-0.1,7.28,0.46,11.39
			c0.37,2.74,0.93,5.2,1.7,7.53l0.19,0.58c0.21,0.63,0.41,1.22,0.52,1.63c0.85,3.13,2.53,5.85,4.85,7.94
			c1.02,1.42,2.06,2.58,2.93,3.51c0.49,0.52,0.97,1.03,1.46,1.54c0.65,0.68,1.28,1.34,1.88,1.99c0.76,3.83,2.86,7.19,6.02,9.53
			c3.92,2.9,8.34,3.51,11.36,3.51c3.92,0,7.55-1.04,10.48-3.02c0.29-0.2,0.58-0.39,0.88-0.58c1.12-0.74,2.5-1.65,3.93-2.77
			c0.36-0.28,0.69-0.49,1.6-0.52c1.77-0.06,3.26-0.31,4.25-0.48c0.2-0.03,0.41-0.07,0.61-0.1c1.37-0.17,2.48-0.45,3.22-0.62
			c0.08-0.02,0.16-0.04,0.23-0.06c3.51-0.5,6.63-1.4,9.54-2.74c1.54-0.7,2.87-1.55,4.01-2.52c0.09,0.04,0.18,0.07,0.27,0.1
			c2.3,0.88,4.77,1.32,7.33,1.32c2.09,0,3.86-0.29,5.02-0.49l0.24-0.04l0.5-0.08c0.65-0.11,1.53-0.25,1.84-0.27l0.41-0.01
			c0.6-0.01,1.2-0.03,1.81-0.03c0.83,0,1.24,0.04,1.44,0.07c1.17,0.18,2.41,0.41,3.79,0.69c1.34,0.28,3.01,0.95,4.47,1.58
			c1.5,0.64,2.6,1.46,3.58,2.66c2.68,3.28,6.63,5.28,10.87,5.49c0.25,0.01,0.5,0.02,0.75,0.02c3.97,0,7.79-1.58,10.61-4.4
			c2.76-2.77,4.36-6.46,4.53-10.34c0.48-2.75,0.54-5.2,0.58-7.19c0.01-0.39,0.02-0.77,0.03-1.16c0.07-2.27-0.06-4.28-0.17-6.05
			c-0.06-0.98-0.13-1.9-0.13-2.63c-0.03-4.45-0.81-8.44-1.64-12.09c-1.27-5.56-4.08-10.72-8.34-15.35
			c-1.03-1.12-2.01-2.01-2.79-2.73c-0.36-0.33-0.73-0.67-0.92-0.86l-0.11-0.11c-1.32-1.36-3.13-3.22-5.69-4.92l-0.43-0.28
			c-2.07-1.38-4.9-3.27-8.67-4.53c-0.42-0.14-0.84-0.28-1.26-0.41c-0.93-0.3-1.81-0.59-2.51-0.86c-1.66-0.64-3.49-1.3-5.62-1.8
			c-1.69-0.4-2.94-0.8-3.9-1.26c-0.18-0.12-0.47-0.34-0.66-0.48c-1.69-1.25-3.39-2.01-4.95-2.46c-0.48-0.47-1-0.96-1.57-1.47
			c-2.64-2.35-5.73-4.29-9.45-5.94c-2.92-1.3-6.01-2.36-9.17-3.14c-3.26-0.8-6.36-1.21-9.47-1.23l-0.46,0l-0.19,0l-0.16,0
			c-0.04,0-0.09,0-0.13,0c-0.01,0-0.03,0-0.04,0C714.54,194.82,713.57,194.76,712.61,194.76L712.61,194.76z"/>
	</g>
	<g>
		<path class="st0" d="M732.46,289.69c-0.36,0-0.73-0.02-1.1-0.05c-1.01-0.09-1.92-0.25-2.73-0.38c-0.3-0.05-0.6-0.1-0.91-0.15
			l-1.17-0.17c-0.75-0.11-1.51-0.22-2.26-0.34c-0.79-0.13-1.57-0.27-2.35-0.41c-1.06-0.19-2.13-0.38-3.19-0.54
			c-0.58-0.09-1.16-0.15-1.75-0.21c-0.84-0.09-1.68-0.18-2.51-0.31c-0.04-0.01-0.18-0.02-0.61-0.02c0,0-1.2,0.01-1.48,0.01
			c-0.22,0-0.44,0-0.65-0.01c-1.06-0.03-2.15-0.15-3.43-0.4c-2.62-0.5-4.85-2.17-6.1-4.58c-1.28-2.45-1.37-5.41-0.24-7.92
			c1.51-3.39,3.85-5.94,6.93-7.6c0.9-0.52,1.85-0.84,2.83-0.98c1.82-0.91,3.63-1.45,5.27-1.91c0.48-0.13,1.29-0.55,2.07-0.96
			c0.69-0.36,1.38-0.71,2.08-1.04c1.94-0.88,4.06-1.77,6.46-2.28c0.78-0.17,1.57-0.25,2.36-0.25c2.33,0,4.59,0.7,6.92,2.15
			c1.4,0.87,2.87,1.75,4.2,2.12c0.71,0.2,1.64,0.32,2.72,0.46l0.5,0.06c1.41,0.18,2.56,0.3,3.63,0.3c0,0,0.69-0.01,0.87-0.01l0.58,0
			c2.22,0,4.33,0.99,5.76,2.69c1.43,1.71,2.02,3.96,1.62,6.14c-0.24,1.32-0.79,2.51-1.6,3.5c-0.89,1.78-2.13,2.93-2.8,3.56
			l-0.15,0.14c-2.75,2.6-5.52,5.07-9.25,6.85c-2,0.95-3.92,1.37-5.46,1.71l-0.56,0.12l-0.46,0.11
			C735.48,289.37,734.12,289.69,732.46,289.69z"/>
		<path d="M729.99,266.71c1.05,0,2.02,0.44,2.95,1.01c1.93,1.2,3.9,2.35,6.12,2.97c1.41,0.4,2.84,0.55,4.29,0.74
			c1.53,0.2,3.05,0.36,4.59,0.36c0.18,0,0.36,0,0.54-0.01c0.11,0,0.22,0,0.33,0c0.19,0,0.38,0,0.58,0
			c-0.05,0.26-0.33,0.22-0.45,0.38c-0.05,0.07-0.23,0.11-0.23,0.16c-0.05,1.17-0.92,1.87-1.64,2.54c-2.23,2.11-4.51,4.19-7.33,5.53
			c-1.41,0.67-2.93,0.95-4.44,1.29c-0.94,0.21-1.88,0.49-2.84,0.49c-0.14,0-0.28-0.01-0.41-0.02c-1.07-0.1-2.13-0.32-3.2-0.48
			c-1.1-0.17-2.21-0.31-3.32-0.49c-1.88-0.31-3.76-0.68-5.64-0.96c-1.4-0.21-2.83-0.3-4.23-0.52c-0.59-0.09-1.17-0.11-1.76-0.11
			c-0.49,0-0.99,0.01-1.48,0.01c-0.16,0-0.31,0-0.47-0.01c-0.75-0.02-1.48-0.13-2.21-0.26c-0.82-0.16-1.29-1.22-0.91-2.07
			c0.79-1.77,1.98-3.19,3.72-4.1c0.08-0.04,0.17-0.11,0.25-0.11c0.06,0,0.13,0.04,0.19,0.17c0.06,0.11,0.15,0.16,0.26,0.16
			c0.09,0,0.19-0.04,0.28-0.1c1.64-1.21,3.53-1.8,5.48-2.33c1.86-0.51,3.51-1.6,5.27-2.4c1.59-0.72,3.2-1.41,4.91-1.77
			C729.46,266.74,729.73,266.71,729.99,266.71 M729.99,251.71c-1.32,0-2.64,0.14-3.93,0.42c-3.11,0.66-5.68,1.73-8.01,2.79
			c-0.94,0.43-1.77,0.86-2.43,1.21c-0.3,0.16-0.69,0.36-0.93,0.47c-1.72,0.48-3.51,1.05-5.31,1.87c-1.27,0.3-2.66,0.79-4.09,1.6
			c-4.48,2.43-7.98,6.26-10.14,11.1c-2.08,4.66-1.92,9.92,0.44,14.45c2.32,4.45,6.45,7.54,11.34,8.48c1.69,0.32,3.17,0.49,4.65,0.53
			c0.28,0.01,0.56,0.01,0.84,0.01c0.32,0,0.64,0,0.97-0.01c0.14,0,0.28,0,0.42-0.01c0.9,0.13,1.71,0.21,2.43,0.29
			c0.54,0.06,1.05,0.11,1.41,0.17c0.94,0.14,1.95,0.32,3.01,0.51c0.81,0.14,1.62,0.29,2.44,0.42c0.81,0.13,1.62,0.25,2.42,0.37
			c0.37,0.05,0.74,0.11,1.11,0.16c0.26,0.04,0.52,0.08,0.78,0.13c0.89,0.15,2,0.34,3.29,0.46c0.59,0.05,1.18,0.08,1.77,0.08
			c2.54,0,4.56-0.48,5.77-0.77c0.12-0.03,0.23-0.06,0.35-0.08l0.52-0.11c1.72-0.37,4.31-0.94,7.1-2.27c4.7-2.24,8.1-5.26,11.17-8.16
			l0.11-0.1c0.84-0.78,2.67-2.48,4.13-5.15c1.27-1.79,2.15-3.86,2.55-6.08c0.79-4.37-0.4-8.87-3.25-12.28s-7.07-5.38-11.51-5.38
			l-0.18,0l-0.39,0c-0.25,0-0.49,0-0.73,0.01l-0.14,0c-0.7,0-1.7-0.12-2.67-0.24l-0.5-0.06c-0.57-0.07-1.34-0.17-1.63-0.24
			c-0.34-0.12-1.11-0.55-2.27-1.27C737.37,252.82,733.71,251.71,729.99,251.71L729.99,251.71z"/>
	</g>
	<path class="st16" d="M665.69,299.63c1.72-0.22,3.43-0.16,5.13-0.17c0.12,0,0.24,0,0.37,0c0.58-0.01,1.43-0.45,1.43-0.74
		c0-0.23-0.91-0.93-1.32-0.97c-1.88-0.19-3.75-0.06-5.63,0.08c-1.34,0.1-2.67,0.51-4.02,0.39c-1.86-0.17-3.77-0.27-5.44-1.22
		c-1.86-1.06-3.44-2.4-4.06-4.59c-0.48-1.68,0.13-3.82,1.52-4.89c0.88-0.68,1.75-1.39,2.9-1.59c0.14-0.02,0.28-0.13,0.36,0.03
		c0.06,0.1,0.02,0.22-0.09,0.32c-0.19,0.17-0.22,0.38-0.06,0.6c0.17,0.23,0.37,0.23,0.64,0.19c1.2-0.19,1.68-1.18,2.2-2.05
		c1.07-1.82,1.81-3.8,2.69-5.71c0.89-1.93,2.41-2.72,4.46-2.75c1.57-0.02,3.08,0.08,4.43,0.98c1.41,0.94,2.65,2.07,3.77,3.33
		c0.67,0.76,1.36,1.5,1.9,2.36c0.69,1.09,1.19,2.28,1.67,3.48c0.73,1.82,1.89,3.28,3.46,4.47c2.8,2.11,5.63,4.17,8.61,6.02
		c3.18,1.97,6.35,3.98,9.4,6.14c3.58,2.53,7.24,4.92,10.87,7.37c2.24,1.51,4.47,3.05,6.84,4.36c2.72,1.5,5.42,3.02,8.19,4.44
		c2.9,1.49,5.63,3.22,8.11,5.32c3.98,3.37,8.27,6.29,12.68,9.07c2.45,1.54,5,2.89,7.47,4.39c2.31,1.41,4.63,2.8,6.96,4.17
		c3.3,1.95,6.65,3.8,10.21,5.26c0.45,0.18,0.86,0.45,1.31,0.63c1.01,0.42,2.05,0.73,3.14,0.84c1.52,0.15,3.05,0.18,4.54,0.51
		c1.06,0.23,1.8,0.92,2.22,1.87c0.6,1.36,1.32,2.67,1.56,4.17c0.16,0.99-0.02,1.84-0.62,2.71c-0.81,1.17-2.14,1.54-3.18,2.34
		c-0.56,0.43-1.11,0.85-1.52,1.44c-0.99,1.45-1.98,2.89-2.6,4.57c-0.84,2.28-2.51,3.84-4.93,4.25c-1.34,0.23-2.64-0.04-3.64-1.31
		c-1.42-1.79-2.82-3.59-4.35-5.3c-1.33-1.49-2.76-2.89-4.25-4.21c-2.97-2.65-6.19-4.95-9.63-6.95c-3.26-1.9-6.34-4.09-9.49-6.17
		c-3.32-2.2-6.51-4.57-9.88-6.7c-2.03-1.29-4.2-2.36-6.18-3.74c-2.56-1.79-5.07-3.64-7.64-5.42c-4.15-2.88-8.4-5.61-12.63-8.36
		c-3.14-2.05-6.21-4.2-9.35-6.26c-4.54-2.98-9.01-6.08-13.69-8.87c-2.98-1.78-6.01-3.46-8.93-5.35c-0.92-0.6-1.79-1.26-2.85-1.62
		C667.76,300.44,666.75,300.03,665.69,299.63z"/>
	<path class="st16" d="M666.95,355.78c0.62,0.15,1,0.5,1.43,0.76c0.6,0.37,1.18,0.77,1.73,1.2c0.54,0.42,1.06,0.25,1.57,0.03
		c0.44-0.18,0.46-0.54,0.23-0.91c-0.16-0.27-0.36-0.5-0.64-0.68c-2.02-1.28-3.97-2.66-6.27-3.42c-0.34-0.11-0.62-0.31-0.81-0.59
		c-0.47-0.68-1.16-0.86-1.92-0.91c-1.54-0.11-3.08-0.23-4.56-0.73c-0.06-0.02-0.12-0.01-0.18-0.03c-1.06-0.38-1.06-0.39-1.07-1.52
		c-0.01-2.67,0.38-5.24,1.63-7.66c0.67-1.3,1.76-1.86,3.07-2.04c3.6-0.52,7.11-1.34,10.54-2.58c4.62-1.67,9.18-3.53,13.9-4.93
		c3.12-0.93,6.19-1.99,9.22-3.15c1.19-0.46,2.31-1.08,3.43-1.69c1.43-0.78,2.99-1.34,4.36-2.23c0.18-0.12,0.33-0.06,0.47,0.04
		c4.49,2.91,8.97,5.84,13.35,8.93c0.06,0.05,0.12,0.1,0.17,0.13c-4.09,1.9-8.15,3.87-12.13,6.02c-1.99,1.07-4.08,1.93-6.13,2.89
		c-2.77,1.3-5.38,2.87-7.84,4.7c-1.46,1.09-2.4,2.58-3.42,4.03c-1.33,1.89-2.86,3.65-4.04,5.64c-0.43,0.72-0.9,1.42-1.28,2.15
		c-0.41,0.78-1.02,1.22-1.85,1.49c-1.96,0.64-3.92,1.22-6.01,1.22c-1.37,0-2.48-0.23-3.3-1.55
		C669.59,358.76,668.34,357.26,666.95,355.78z"/>
	<path class="st16" d="M787.45,292c0.87,0.72,1.95,1.07,2.84,1.74c1.36,1.03,1.72,2.89,1.19,4.6c-0.5,1.59-1.19,3.14-2.1,4.53
		c-1.24,1.9-3.13,2.96-5.25,3.71c-2.56,0.9-5.24,1.29-7.86,1.95c-6.17,1.56-12.27,3.37-18.26,5.55c-3.65,1.33-7.26,2.76-10.88,4.17
		c-1.68,0.65-3.47,0.98-5.18,1.56c-2.24,0.76-4.35,1.82-6.34,3.12c-0.28,0.18-0.44,0.14-0.61,0c-3.5-2.91-7.48-5.04-11.53-7.04
		c-0.08-0.04-0.14-0.06-0.14-0.22c2.6-0.51,4.96-1.79,7.46-2.62c3.29-1.09,6.37-2.62,9.53-4.01c2.85-1.25,5.75-2.39,8.63-3.56
		c1.9-0.77,3.63-1.89,5.44-2.83c1.92-1,3.82-2.04,5.72-3.06c1.66-0.89,3.18-2.01,4.81-2.95c1.73-1.01,3.37-2.15,5.01-3.3
		c1.55-1.09,2.57-2.58,3.01-4.46c0.24-1.04,0.54-2.05,1.11-2.98c0.54-0.88,1.29-1.47,2.22-1.85c1.13-0.47,2.29-0.83,3.55-0.74
		c0.93,0.06,1.8,0.34,2.6,0.78c0.62,0.34,0.88,1,0.93,1.72c0.02,0.26,0.04,0.51,0.12,0.76c0.51,1.66,0.93,3.35,1.5,4.98
		c0.37,1.08,1.08,2.01,1.84,2.86c0.42,0.47,1.4,0.36,1.73-0.19c0.29-0.48-0.09-0.8-0.34-1.1C787.89,292.78,787.62,292.44,787.45,292
		z"/>
	<path class="st16" d="M778.17,271.61c-2.54-3.11-5.63-5.39-9.29-6.96c-2.39-1.02-4.8-1.95-7.35-2.48c-1.5-0.31-3-0.59-4.51-0.82
		c-2.1-0.33-4.21-0.25-6.32-0.2c-1.48,0.03-2.95,0.3-4.41,0.54c-1.6,0.26-3.26,0.59-4.83-0.01c-1.84-0.7-3.63-1.56-5.12-2.91
		c-1.08-0.98-2.43-1.4-3.86-1.57c-0.58-0.07-1.15-0.2-1.73-0.23c-1.23-0.06-2.44,0.09-3.62,0.48c-1.37,0.45-2.8,0.59-4.21,0.86
		c-0.82,0.15-1.61,0.41-2.38,0.73c-0.34,0.14-0.33,0.32-0.15,0.55c0.19,0.23,0.44,0.33,0.75,0.31c2.21-0.1,4.4-0.23,6.56-0.76
		c1.07-0.27,2.16-0.46,3.31-0.19c-0.83,0.66-1.65,1.3-2.46,1.97c-0.78,0.65-1.49,1.38-2.12,2.18c-0.09,0.12-0.18,0.31-0.16,0.44
		c0.12,0.6-0.24,0.73-0.7,0.94c-1.79,0.82-3.65,1.28-5.59,1.55c-1.02,0.14-2,0.49-3.03,0.62c-1.15,0.15-2.28,0.42-3.44,0.46
		c-3.88,0.12-7.35,1.32-10.41,3.73c-1.24,0.98-2.58,1.81-3.89,2.69c-0.99,0.67-3.6,0.58-4.54-0.11c-0.26-0.19-0.25-0.43-0.25-0.7
		c0-1.1,0.15-2.22-0.5-3.22c-0.41-0.63-0.9-1.2-1.39-1.75c-1.68-1.91-3.46-3.74-5.2-5.59c-0.87-0.92-1.7-1.89-2.32-3
		c-0.28-0.49-0.63-0.89-1.13-1.14c-0.43-0.22-0.65-0.47-0.8-1c-0.27-1-0.62-2-0.95-2.99c-0.52-1.57-0.85-3.18-1.07-4.82
		c-0.41-3.01-0.39-6.03-0.33-9.05c0.04-1.69,0.49-3.34,1-4.96c0.49-1.57,1.1-3.09,1.5-4.69c0.47-1.83,1.47-3.4,2.65-4.85
		c1.09-1.34,2.22-2.64,3.41-3.9c1.71-1.82,3.87-3.09,5.85-4.57c1.17-0.88,2.24-1.89,3.6-2.51c2.61-1.2,5.25-2.33,7.9-3.44
		c1.51-0.63,3.03-1.19,4.65-1.4c0.84-0.11,1.72-0.12,2.56-0.01c0.84,0.11,1.66,0.08,2.49,0.09c2.03,0.02,4.03,0.31,6,0.8
		c2.29,0.56,4.52,1.32,6.67,2.28c2.01,0.9,3.92,1.97,5.59,3.46c1.19,1.06,2.26,2.24,3.42,3.32c0.57,0.54,1.2,0.99,1.94,1.23
		c-0.27,0.95-0.77,1.79-1.21,2.66c-0.74,1.47-1.06,3.07-1.44,4.66c-0.04,0.19,0.08,0.38,0.22,0.45c0.19,0.09,0.3-0.07,0.4-0.26
		c0.57-1.11,0.98-2.3,1.7-3.33c0.84-1.21,1.63-2.45,2.09-3.86c0.09-0.28,0.24-0.25,0.45-0.09c0.84,0.62,1.67,1.23,2.61,1.7
		c2.36,1.2,4.86,1.97,7.43,2.57c1.25,0.29,2.45,0.73,3.65,1.2c1.45,0.56,2.94,1.02,4.41,1.51c2.04,0.68,3.78,1.91,5.56,3.08
		c1.26,0.84,2.3,1.92,3.34,2.99c1.11,1.14,2.36,2.12,3.44,3.29c2.27,2.46,3.99,5.21,4.75,8.52c0.67,2.92,1.24,5.82,1.26,8.85
		c0.02,2.69,0.4,5.38,0.31,8.08c-0.07,2.2-0.03,4.41-0.46,6.59c-0.09,0.48-0.19,0.99-0.15,1.5
		C778.34,271.31,778.3,271.48,778.17,271.61z M716.4,261.13c-1.74-0.64-3.42-1.06-5.16-0.21c-1.05,0.51-2.06,1.11-3.26,1.22
		c-0.35,0.03-0.6,0.02-0.84-0.31c-1.03-1.4-1.51-3-1.8-4.68c-0.03-0.18,0.02-0.31,0.17-0.42c0.58-0.38,1.12-0.83,1.76-1.12
		c1.07-0.48,2.13-0.95,3.18-1.47c1.92-0.94,3.89-1.79,5.5-3.25c0.74-0.67,1.57-1.17,2.52-1.48c2.49-0.8,4.96-1.63,7.18-3.09
		c1.82-1.21,3.61-2.39,4.78-4.33c0.95-1.57,1.63-3.18,1.6-5.04c-0.01-0.61-0.04-1.21-0.11-1.81c-0.12-1.01-0.2-2.03-0.45-3.02
		c-0.65-2.56-2.1-4.55-4.24-6.13c-2.06-1.52-4.34-2.38-6.86-2.57c-2.14-0.16-4.26,0.08-6.33,0.66c-1.41,0.39-2.82,0.86-4.1,1.56
		c-1.88,1.03-2.95,2.79-3.75,4.72c-0.6,1.43-0.82,2.95-1.1,4.45c-0.17,0.92-0.24,1.87-0.11,2.79c0.27,1.91,0.71,3.79,1.29,5.65
		c0.6,1.94,1.68,3.53,3.13,4.92c1.11,1.06,2.4,1.84,3.81,2.61c-1.68,0.82-3.29,1.63-4.92,2.4c-1.37,0.65-2.77,1.26-3.92,2.29
		c-0.32,0.29-0.52,0.63-0.52,1.1c0,2.28,0.76,4.31,2.04,6.16c0.45,0.65,1.07,1.14,1.95,0.98c0.72-0.13,1.47-0.21,2.13-0.57
		c1.58-0.86,3.22-1.44,5.04-1.54C715.45,261.57,715.98,261.57,716.4,261.13z M744.91,225.85c-0.14,0-0.29-0.01-0.43,0
		c-0.9,0.1-1.44,0.77-1.15,1.52c0.2,0.51,0.48,0.99,0.86,1.42c1.01,1.12,2.35,1.64,3.71,2.14c0.28,0.1,0.57,0.16,0.77-0.11
		c0.45-0.62,0.78-1.25,0.53-2.08c-0.27-0.89-1.01-1.27-1.66-1.74C746.76,226.42,745.95,225.85,744.91,225.85z"/>
	<path class="st16" d="M749.39,271.79c-0.05,0.26-0.33,0.22-0.45,0.38c-0.05,0.07-0.23,0.11-0.23,0.16
		c-0.05,1.17-0.92,1.87-1.64,2.54c-2.23,2.11-4.51,4.19-7.33,5.53c-1.41,0.67-2.93,0.95-4.44,1.29c-1.07,0.24-2.15,0.58-3.26,0.48
		c-1.07-0.1-2.13-0.32-3.2-0.48c-1.1-0.17-2.21-0.31-3.32-0.49c-1.88-0.31-3.76-0.68-5.64-0.96c-1.4-0.21-2.83-0.3-4.23-0.52
		c-1.24-0.19-2.47-0.07-3.71-0.1c-0.75-0.02-1.48-0.13-2.21-0.26c-0.82-0.16-1.29-1.22-0.91-2.07c0.79-1.77,1.98-3.19,3.72-4.1
		c0.15-0.08,0.29-0.23,0.44,0.06c0.1,0.21,0.36,0.19,0.53,0.06c1.64-1.21,3.53-1.8,5.48-2.33c1.86-0.51,3.51-1.6,5.27-2.4
		c1.59-0.72,3.2-1.41,4.91-1.77c1.37-0.29,2.59,0.21,3.75,0.93c1.93,1.2,3.9,2.35,6.12,2.97c1.41,0.4,2.84,0.55,4.29,0.74
		c1.71,0.22,3.4,0.4,5.13,0.36C748.78,271.79,749.09,271.79,749.39,271.79z"/>
	<path class="st3" d="M716.4,261.13c-0.43,0.45-0.96,0.44-1.39,0.46c-1.82,0.1-3.46,0.68-5.04,1.54c-0.66,0.36-1.41,0.44-2.13,0.57
		c-0.88,0.16-1.5-0.33-1.95-0.98c-1.28-1.84-2.04-3.88-2.04-6.16c0-0.46,0.2-0.81,0.52-1.1c1.15-1.03,2.55-1.63,3.92-2.29
		c1.63-0.78,3.25-1.58,4.92-2.4c-1.41-0.77-2.7-1.55-3.81-2.61c-1.45-1.39-2.53-2.98-3.13-4.92c-0.58-1.85-1.02-3.73-1.29-5.65
		c-0.13-0.92-0.06-1.87,0.11-2.79c0.27-1.51,0.5-3.03,1.1-4.45c0.8-1.92,1.87-3.69,3.75-4.72c1.28-0.7,2.69-1.16,4.1-1.56
		c2.07-0.58,4.19-0.82,6.33-0.66c2.52,0.19,4.8,1.05,6.86,2.57c2.14,1.57,3.6,3.57,4.24,6.13c0.25,0.98,0.33,2,0.45,3.02
		c0.07,0.61,0.1,1.21,0.11,1.81c0.04,1.86-0.65,3.47-1.6,5.04c-1.17,1.94-2.96,3.13-4.78,4.33c-2.22,1.47-4.69,2.3-7.18,3.09
		c-0.95,0.3-1.78,0.81-2.52,1.48c-1.61,1.46-3.58,2.31-5.5,3.25c-1.05,0.51-2.11,0.99-3.18,1.47c-0.65,0.29-1.18,0.74-1.76,1.12
		c-0.15,0.1-0.2,0.24-0.17,0.42c0.29,1.68,0.77,3.28,1.8,4.68c0.24,0.33,0.49,0.35,0.84,0.31c1.2-0.12,2.21-0.71,3.26-1.22
		C712.98,260.06,714.66,260.48,716.4,261.13z M718.62,225.35c-1.12-0.07-2.51,0.18-3.87,0.51c-1.34,0.32-2.69,0.74-3.86,1.42
		c-1.78,1.02-2.88,2.69-3.46,4.67c-0.19,0.63-0.35,1.27-0.45,1.91c-0.17,1.05-0.48,2.1-0.38,3.16c0.12,1.39,0.34,2.78,0.73,4.12
		c0.36,1.23,0.59,2.49,1.28,3.64c1.12,1.87,2.73,3.23,4.33,4.61c0.8,0.69,1.32,0.6,2.1-0.09c0.71-0.63,1.52-1.11,2.42-1.41
		c2.91-0.96,5.85-1.88,8.32-3.8c0.76-0.59,1.66-0.98,2.25-1.79c0.55-0.74,1.08-1.48,1.56-2.27c0.5-0.83,0.78-1.73,0.75-2.73
		c-0.04-1.19-0.09-2.37-0.23-3.56c-0.24-1.95-0.99-3.6-2.34-5c-0.99-1.02-2.21-1.75-3.46-2.38
		C722.63,225.52,720.78,225.35,718.62,225.35z"/>
	<path class="st3" d="M744.91,225.85c1.04,0,1.85,0.56,2.63,1.14c0.65,0.48,1.39,0.86,1.66,1.74c0.25,0.83-0.08,1.47-0.53,2.08
		c-0.2,0.27-0.49,0.21-0.77,0.11c-1.36-0.5-2.7-1.02-3.71-2.14c-0.39-0.43-0.66-0.91-0.86-1.42c-0.29-0.75,0.25-1.42,1.15-1.52
		C744.62,225.84,744.77,225.85,744.91,225.85z"/>
</g>
<g>
	<g>
		<path d="M808.79,502.15c16.36-22.96,41.83-31.68,66.13-14.41c20.66,14.63,40.87,31.6,51.73,55.09
			c7.46,15.73,10.62,33.53,9.09,50.92c0,0-10.93-1.21-10.93-1.21c4.86-32.82-9.48-63.43-33.64-85.29
			c-9.03-8.11-17.89-17.09-28.87-22.47C842.91,475.06,821.09,486.13,808.79,502.15L808.79,502.15z"/>
	</g>
	<g>
		<path d="M643.39,502.15c-12.31-16.02-34.1-27.09-53.5-17.38c-10.98,5.39-19.84,14.36-28.87,22.47
			c-24.16,21.85-38.51,52.5-33.64,85.29c0,0-10.93,1.21-10.93,1.21c-1.53-17.39,1.63-35.19,9.09-50.92
			c10.87-23.5,31.07-40.46,51.73-55.09C601.53,470.47,627.05,479.2,643.39,502.15L643.39,502.15z"/>
	</g>
	<g>
		<g>
			<path d="M615.52,745.05c21.72,13.49,35.8,35.6,44.75,59.08c5.52,13.89,10.3,27.99,13.92,42.52
				c-9.35-17.47-16.88-35.87-25.33-53.67C640.61,775.02,629.28,759.32,615.52,745.05L615.52,745.05z"/>
		</g>
		<g>
			<path d="M836.66,745.05c-13.76,14.27-25.08,29.98-33.34,47.94c-8.45,17.8-15.97,36.2-25.33,53.67
				c3.63-14.53,8.4-28.63,13.92-42.52C800.85,780.65,814.94,758.53,836.66,745.05L836.66,745.05z"/>
		</g>
	</g>
</g>
<g>
	<g>
		<path d="M684.95,665.81c4.06-12.26,9.03-24.12,14.21-35.91c1.38-3.28,3.92-8.29,5.11-11.43c1.73-5.09,2.3-11.56-1.45-15.59
			c-2.62-2.37-6.86-2.8-10.4-2.18c-6.18,0.97-11.39,4.64-15.51,9.47c2.81-5.9,8.3-10.89,14.79-12.67
			c7.45-2.25,15.95,0.33,18.03,8.56c1.34,4.78,0.77,9.66-0.75,14.07c-1.44,3.83-3.92,8.24-5.59,11.88
			C697.67,643.51,691.76,654.85,684.95,665.81L684.95,665.81z"/>
	</g>
	<g>
		<path d="M767.23,665.81c-6.81-10.96-12.72-22.3-18.45-33.81c-1.67-3.67-4.14-8.04-5.59-11.88c-2.28-6.58-2.54-15.41,3.27-20.57
			c4.06-3.21,9.37-3.35,14.01-2.06c6.49,1.78,11.99,6.77,14.79,12.67c-4.11-4.83-9.33-8.5-15.51-9.47
			c-3.53-0.62-7.78-0.19-10.4,2.18c-3.76,4.04-3.18,10.5-1.45,15.59c1.18,3.12,3.74,8.18,5.11,11.43
			C758.2,641.69,763.17,653.55,767.23,665.81L767.23,665.81z"/>
	</g>
</g>
</svg>
